<?xml version="1.0" encoding="UTF-8"?><svg width="315px" height="320px" viewBox="0 0 315 320" version="1.1" xmlns="http://www.w3.org/2000/svg" xmlns:xlink="http://www.w3.org/1999/xlink"><title>Job Categories/74 Information Technology</title><defs><linearGradient x1="87.8856355%" y1="79.7423445%" x2="41.5193887%" y2="31.4440481%" id="linearGradient-1"><stop stop-color="#357ECC" offset="0%"/><stop stop-color="#002E5F" offset="100%"/></linearGradient><linearGradient x1="121.321018%" y1="23.3874874%" x2="7.17695608%" y2="62.3480823%" id="linearGradient-2"><stop stop-color="#357ECC" offset="0%"/><stop stop-color="#002E5F" offset="100%"/></linearGradient><linearGradient x1="0%" y1="74.0154753%" x2="190.115918%" y2="-19.2204065%" id="linearGradient-3"><stop stop-color="#5DDAFD" offset="0%"/><stop stop-color="#0373E2" offset="100%"/></linearGradient><linearGradient x1="133.543432%" y1="4.28020025%" x2="19.4533269%" y2="59.9051178%" id="linearGradient-4"><stop stop-color="#5DDAFD" offset="0%"/><stop stop-color="#0373E2" offset="100%"/></linearGradient><linearGradient x1="50%" y1="121.929519%" x2="50%" y2="-37.6800462%" id="linearGradient-5"><stop stop-color="#FFC444" offset="0%"/><stop stop-color="#F36F56" offset="100%"/></linearGradient><linearGradient x1="50%" y1="126.119055%" x2="50%" y2="-64.0927241%" id="linearGradient-6"><stop stop-color="#FFC444" offset="0%"/><stop stop-color="#F36F56" offset="100%"/></linearGradient><linearGradient x1="83.2044957%" y1="20.8199151%" x2="46.3060072%" y2="38.6194636%" id="linearGradient-7"><stop stop-color="#FC9B7A" offset="0%"/><stop stop-color="#F55D3E" offset="100%"/></linearGradient><linearGradient x1="113.6413%" y1="9.14169359%" x2="64.3321094%" y2="50%" id="linearGradient-8"><stop stop-color="#5DDAFD" offset="0%"/><stop stop-color="#0373E2" offset="100%"/></linearGradient><linearGradient x1="130.228669%" y1="19.3274607%" x2="-13.6203872%" y2="191.8034%" id="linearGradient-9"><stop stop-color="#FFC444" offset="0%"/><stop stop-color="#F36F56" offset="100%"/></linearGradient><linearGradient x1="82%" y1="-111.567859%" x2="-113.681274%" y2="282.210399%" id="linearGradient-10"><stop stop-color="#FFC444" offset="0%"/><stop stop-color="#F36F56" offset="100%"/></linearGradient><linearGradient x1="90.6048389%" y1="4.72521202%" x2="-48.5408509%" y2="141.911458%" id="linearGradient-11"><stop stop-color="#FFC444" offset="0%"/><stop stop-color="#F36F56" offset="100%"/></linearGradient><linearGradient x1="92.9793372%" y1="2.16596913%" x2="24.552328%" y2="74.7184315%" id="linearGradient-12"><stop stop-color="#5DDAFD" offset="0%"/><stop stop-color="#0373E2" offset="100%"/></linearGradient><linearGradient x1="53.6671088%" y1="131.038952%" x2="57.5239154%" y2="8.83132674%" id="linearGradient-13"><stop stop-color="#FC9B7A" offset="0%"/><stop stop-color="#F55D3E" offset="100%"/></linearGradient><linearGradient x1="-18.9331311%" y1="79.1950847%" x2="66.9259864%" y2="32.5414507%" id="linearGradient-14"><stop stop-color="#357ECC" offset="0%"/><stop stop-color="#002E5F" offset="100%"/></linearGradient><linearGradient x1="4.77541006%" y1="35.5388667%" x2="112.244188%" y2="66.0054016%" id="linearGradient-15"><stop stop-color="#357ECC" offset="0%"/><stop stop-color="#002E5F" offset="100%"/></linearGradient><linearGradient x1="46.1613245%" y1="133.949959%" x2="53.8386755%" y2="-100.580694%" id="linearGradient-16"><stop stop-color="#A03976" offset="0%"/><stop stop-color="#311944" offset="100%"/></linearGradient><linearGradient x1="13.490378%" y1="71.5316942%" x2="58.2259951%" y2="45.4626189%" id="linearGradient-17"><stop stop-color="#357ECC" offset="0%"/><stop stop-color="#002E5F" offset="100%"/></linearGradient><linearGradient x1="36.3227386%" y1="100%" x2="36.3227386%" y2="0%" id="linearGradient-18"><stop stop-color="#444B8C" offset="0%"/><stop stop-color="#26264F" offset="100%"/></linearGradient><linearGradient x1="64.8648229%" y1="131.038952%" x2="80.4985965%" y2="8.83132674%" id="linearGradient-19"><stop stop-color="#FC9B7A" offset="0%"/><stop stop-color="#F55D3E" offset="100%"/></linearGradient><linearGradient x1="0%" y1="135.196093%" x2="0%" y2="-142.952539%" id="linearGradient-20"><stop stop-color="#A03976" offset="0%"/><stop stop-color="#311944" offset="100%"/></linearGradient><linearGradient x1="47.9221352%" y1="100%" x2="96.635054%" y2="-205.615062%" id="linearGradient-21"><stop stop-color="#A03976" offset="0%"/><stop stop-color="#311944" offset="100%"/></linearGradient><linearGradient x1="59.0027818%" y1="131.038952%" x2="68.4712734%" y2="8.83132674%" id="linearGradient-22"><stop stop-color="#FC9B7A" offset="0%"/><stop stop-color="#F55D3E" offset="100%"/></linearGradient><linearGradient x1="-64.9617198%" y1="60.2110067%" x2="200.548164%" y2="50%" id="linearGradient-23"><stop stop-color="#A03976" offset="0%"/><stop stop-color="#311944" offset="100%"/></linearGradient><linearGradient x1="45.3237722%" y1="53.1923925%" x2="40.581826%" y2="49.0561229%" id="linearGradient-24"><stop stop-color="#357ECC" offset="0%"/><stop stop-color="#002E5F" offset="100%"/></linearGradient><linearGradient x1="40.3325525%" y1="54.9152641%" x2="37.2912892%" y2="48.9853276%" id="linearGradient-25"><stop stop-color="#5DDAFD" offset="0%"/><stop stop-color="#0373E2" offset="100%"/></linearGradient><linearGradient x1="27.9246558%" y1="45.6618124%" x2="23.6322484%" y2="51.9497142%" id="linearGradient-26"><stop stop-color="#FC9B7A" offset="0%"/><stop stop-color="#F55D3E" offset="100%"/></linearGradient></defs><g id="Symbols" stroke="none" stroke-width="1" fill="none" fill-rule="evenodd"><g id="Job-Categories/74-Information-Technology"><g id="Asset-2" transform="translate(0.000000, -5.820780)"><path d="M298.616975,95.924035 C305.01568,16.7592502 230.097983,-8.62888477 177.984464,13.0286192 C125.448928,34.8567796 112.320747,1.42000655 37.9505329,13.1199006 C25.1949443,15.1280913 17.9369953,18.2515026 11.1352821,25.3079516 C-10.8058512,48.0528948 6.88848848,90.4471511 14.8421968,146.148648 C29.63944,249.772879 -7.30044051,273.244104 17.9598071,305.450563 C41.201212,335.085267 73.6129536,316.658331 217.699779,325.34197 C226.965164,325.901565 247.457749,326.826285 268.410372,315.328798 C281.451108,308.185036 293.955767,295.139734 306.182883,270.716006 C330.056682,213.482767 297.794821,169.53044 298.616975,95.924035 Z" id="Path" fill="#F2F3F4" transform="translate(157.772054, 165.631201) scale(-1, 1) translate(-157.772054, -165.631201) "/><g id="Mac" transform="translate(24.000000, 68.820780)"><path d="M179.60971,206.600688 C175.484956,205.223475 172.415769,201.750632 171.565674,197.498712 L165.586686,168 L114.431407,169.811932 L108.135907,200.54168 C107.255849,204.842614 110.783799,209.162782 114.848276,210.747742 L136.251432,219.091861 C140.227233,220.642272 144.507462,221.260902 148.761374,220.899946 L193.991704,217.052957 C195.319809,216.931566 196.379347,215.896467 196.52766,214.575496 C196.682056,213.244438 197.608432,211.751806 196.346244,211.336331 L179.60971,206.600688 Z" id="Path" fill="#002E5F"/><path d="M180.121584,204.60136 C176.033405,203.242283 172.977877,199.767333 172.115631,195.496457 L166.163078,166 L116.458489,167.803838 L110.182929,198.543112 C109.308548,202.850999 111.638037,207.167558 115.689426,208.746681 L136.988645,217.091868 C140.950081,218.643062 145.207812,219.261226 149.439787,218.899602 L194.453087,215.042583 C195.770415,214.93185 196.828013,213.895464 196.981159,212.565213 C197.134306,211.234962 196.340528,209.979781 195.083719,209.564837 L180.121584,204.60136 Z" id="Path" fill="url(#linearGradient-1)"/><path d="M10.0863869,188.978601 C4.53945311,189.312946 0,185.689579 0,180.899893 L0,8.2573687 C0,3.46768261 4.53945311,-0.233438465 10.0863869,0.0114886647 L267.742812,17.9766992 C271.815195,18.1516472 274,14.8431871 274,18.9136427 L274,165.757176 C273.939312,169.900095 270.735424,173.30442 266.631109,173.587069 L10.0863869,188.978601 Z" id="Path" fill="#002E5F"/><path d="M12.0825268,188.978601 C6.53559303,189.312946 2,185.689579 2,180.899893 L2,8.2573687 C2,3.46768261 6.53559303,-0.233438465 12.0825268,0.0114886647 L268.627249,11.2042697 C272.720869,11.4093379 275.950004,14.7859067 276,18.9136427 L276,165.757176 C275.937318,169.900735 272.732239,173.304542 268.627249,173.587069 L12.0825268,188.978601 Z" id="Path" fill="url(#linearGradient-2)"/><path d="M269.064071,13.5828234 L13.3594814,3.00554015 C10.4046489,2.881784 8,4.84641284 8,7.39114861 L8,178.692861 C8,181.237596 10.4046489,183.159684 13.3594814,182.989519 L269.064071,168.231599 C271.251357,168.077694 272.959506,166.270059 273,164.066431 L273,17.7015826 C272.987955,15.4943915 271.25762,13.6836801 269.064071,13.5828234 Z" id="Path" fill="#D8DEE8" fill-rule="nonzero" opacity="0.3" style="mix-blend-mode:multiply"/><path d="M267.424831,156.510905 L15.7900319,168.99342 C13.1481866,169.121307 11,167.369647 11,165.071562 L11,9.98376562 C11,7.68568063 13.1481866,5.90689309 15.7900319,6.00377695 L267.424831,15.3898846 C269.411306,15.4744346 270.983295,17.1085513 271,19.1063492 L271,152.751811 C270.976872,154.754337 269.414628,156.396951 267.424831,156.510905 L267.424831,156.510905 Z" id="Path" fill="url(#linearGradient-3)"/><polygon id="Path" fill="#FFFFFF" fill-rule="nonzero" opacity="0.6" style="mix-blend-mode:soft-light" points="76 23 19 21.3469607 19 16 76 17.8149543"/><polygon id="Path" fill="#FFFFFF" fill-rule="nonzero" opacity="0.36" style="mix-blend-mode:soft-light" points="105 23 91 22.6130233 91 19 105 19.4167442"/><polygon id="Path" fill="#FFFFFF" fill-rule="nonzero" opacity="0.36" style="mix-blend-mode:soft-light" points="105 27 91 26.6469484 91 23 105 23.3793427"/><polygon id="Path" fill="#0373E2" points="171 28 119 26.8947767 119 24 171 25.1930356"/><polygon id="Path" fill="#0373E2" opacity="0.352848598" points="180 33 128 31.9835294 128 29 180 30.1043137"/><polygon id="Path" fill="#0373E2" opacity="0.352848598" points="180 39 128 38.0751819 128 35 180 36.0121261"/><polygon id="Path" fill="#FFFFFF" fill-rule="nonzero" opacity="0.6" style="mix-blend-mode:soft-light" points="180 44 128 43.1752922 128 40 180 40.918197"/><polygon id="Path" fill="#FFFFFF" fill-rule="nonzero" opacity="0.36" style="mix-blend-mode:soft-light" points="105 32 91 31.6815166 91 28 105 28.3488152"/><polygon id="Path" fill="#FFFFFF" fill-rule="nonzero" opacity="0.36" style="mix-blend-mode:soft-light" points="105 38 91 37.7167464 91 34 105 34.3100478"/><polygon id="Path" fill="#FFFFFF" fill-rule="nonzero" opacity="0.36" style="mix-blend-mode:soft-light" points="105 42 91 41.8115942 91 39 105 39.2057971"/><polygon id="Path" fill="#FFFFFF" fill-rule="nonzero" opacity="0.36" style="mix-blend-mode:soft-light" points="105 48 91 47.8419512 91 45 105 45.1814634"/><polygon id="Path" fill="#FFFFFF" fill-rule="nonzero" opacity="0.6" style="mix-blend-mode:soft-light" points="141 49 108 48.5109489 108 45 141 45.5547445"/><polygon id="Path" fill="#FFFFFF" fill-rule="nonzero" opacity="0.36" style="mix-blend-mode:soft-light" points="105 53 91 52.8699507 91 50 105 50.1507389"/><polygon id="Path" fill="#FFFFFF" fill-rule="nonzero" opacity="0.36" style="mix-blend-mode:soft-light" points="105 58 91 57.8985075 91 55 105 55.1253731"/><polygon id="Path" fill="#FFFFFF" fill-rule="nonzero" opacity="0.36" style="mix-blend-mode:soft-light" points="105 63 91 62.9276382 91 60 105 60.0964824"/><polygon id="Path" fill="#0373E2" opacity="0.352848598" points="155 54 118 53.5506035 118 50 155 50.5236769"/><polygon id="Path" fill="#FFFFFF" fill-rule="nonzero" opacity="0.6" style="mix-blend-mode:soft-light" points="173 59 127 58.5518207 127 55 173 55.54155"/><polygon id="Path" fill="#0373E2" points="173 65 127 64.753861 127 62 173 62.3185328"/><polygon id="Path" fill="#FFFFFF" fill-rule="nonzero" opacity="0.36" style="mix-blend-mode:soft-light" points="105 68 91 67.9543147 91 65 105 65.0639594"/><polygon id="Path" fill="#FFFFFF" fill-rule="nonzero" opacity="0.36" style="mix-blend-mode:soft-light" points="105 72 91 71.9846311 91 69 105 69.0368852"/><polygon id="Path" fill="#FFFFFF" fill-rule="nonzero" opacity="0.36" style="mix-blend-mode:soft-light" points="105 78.9845361 91 79 91 76 105 76.0061856"/><polygon id="Path" fill="#FFFFFF" fill-rule="nonzero" opacity="0.36" style="mix-blend-mode:soft-light" points="105 82.9540347 91 83 91 80.0245148 105 80"/><polygon id="Path" fill="#FFFFFF" fill-rule="nonzero" opacity="0.36" style="mix-blend-mode:soft-light" points="105 88.9211325 91 89 91 86.0546006 105 86"/><polygon id="Path" fill="#FFFFFF" fill-rule="nonzero" opacity="0.36" style="mix-blend-mode:soft-light" points="105 93.8948949 91 94 91 91.0870871 105 91"/><polygon id="Path" fill="#FFFFFF" fill-rule="nonzero" opacity="0.36" style="mix-blend-mode:soft-light" points="105 99.8662042 91 100 91 97.1129832 105 97"/><polygon id="Path" fill="#FFFFFF" fill-rule="nonzero" opacity="0.36" style="mix-blend-mode:soft-light" points="105 103.837917 91 104 91 101.141454 105 101"/><polygon id="Path" fill="#FFFFFF" fill-rule="nonzero" opacity="0.36" style="mix-blend-mode:soft-light" points="105 109.810311 91 110 91 107.166342 105 107"/><polygon id="Path" fill="#FFFFFF" fill-rule="nonzero" opacity="0.36" style="mix-blend-mode:soft-light" points="105 114.786127 91 115 91 112.196532 105 112"/><polygon id="Path" fill="#FFFFFF" fill-rule="nonzero" opacity="0.36" style="mix-blend-mode:soft-light" points="105 120.675573 91 121 91 117.293893 105 117"/><polygon id="Path" fill="#FFFFFF" fill-rule="nonzero" opacity="0.36" style="mix-blend-mode:soft-light" points="105 125.641171 91 126 91 122.332389 105 122"/><polygon id="Path" fill="#FFFFFF" fill-rule="nonzero" opacity="0.36" style="mix-blend-mode:soft-light" points="105 130.606742 91 131 91 127.367041 105 127"/><polygon id="Path" fill="#FFFFFF" fill-rule="nonzero" opacity="0.36" style="mix-blend-mode:soft-light" points="105 135.573284 91 136 91 132.397032 105 132"/><polygon id="Path" fill="#FFFFFF" fill-rule="nonzero" opacity="0.36" style="mix-blend-mode:soft-light" points="105 141.544118 91 142 91 138.433824 105 138"/><polygon id="Path" fill="#FFFFFF" fill-rule="nonzero" opacity="0.36" style="mix-blend-mode:soft-light" points="105 145.508197 91 146 91 142.462659 105 142"/><polygon id="Path" fill="#FFFFFF" fill-rule="nonzero" opacity="0.36" style="mix-blend-mode:soft-light" points="105 152.476534 91 153 91 149.494585 105 149"/><polygon id="Path" fill="#FFFFFF" fill-rule="nonzero" opacity="0.36" style="mix-blend-mode:soft-light" points="105 156.449016 91 157 91 153.529517 105 153"/><polygon id="Path" fill="#0373E2" opacity="0.35" points="144 23 107 22.0882825 107 19 144 19.975923"/><polygon id="Path" fill="#FFFFFF" fill-rule="nonzero" opacity="0.6" style="mix-blend-mode:soft-light" points="171 127.780524 119 129 119 126.135581 171 125"/><polygon id="Path" fill="#0373E2" opacity="0.352848598" points="180 133.383431 128 135 128 131.51393 180 130"/><polygon id="Path" fill="#0373E2" opacity="0.352848598" points="180 138.291726 128 140 128 136.608417 180 135"/><polygon id="Path" fill="#0373E2" opacity="0.352848598" points="201 142.220339 151 144 151 140.684322 201 139"/><polygon id="Path" fill="#0373E2" points="201 147.137052 151 149 151 145.769972 201 144"/><polygon id="Path" fill="#FFFFFF" fill-rule="nonzero" opacity="0.6" style="mix-blend-mode:soft-light" points="201 153.0591 151 155 151 151.850235 201 150"/><polygon id="Path" fill="#0373E2" opacity="0.352848598" points="144 123.137386 107 124 107 120.796003 144 120"/><polygon id="Path" fill="#0373E2" opacity="0.352848598" points="171 72 119 71.9445585 119 69 171 69.1416838"/><polygon id="Path" fill="#FFFFFF" fill-rule="nonzero" opacity="0.6" style="mix-blend-mode:soft-light" points="180 78.9337539 128 79 128 76 180 76.022082"/><polygon id="Path" fill="#0373E2" opacity="0.352848598" points="180 82.8197556 128 83 128 80.0947047 180 80"/><polygon id="Path" fill="#0373E2" opacity="0.352848598" points="180 88.7147059 128 89 128 86.2029412 180 86"/><polygon id="Path" fill="#0373E2" opacity="0.352848598" points="141 93.7497575 108 94 108 91.2007759 141 91"/><polygon id="Path" fill="#FFFFFF" fill-rule="nonzero" opacity="0.6" style="mix-blend-mode:soft-light" points="155 99.5354108 118 100 118 96.3890463 155 96"/><polygon id="Path" fill="#0373E2" points="173 103.316025 127 104 127 100.59803 173 100"/><polygon id="Path" fill="#0373E2" opacity="0.352848598" points="173 109.218071 127 110 127 106.698523 173 106"/><polygon id="Path" fill="#0373E2" opacity="0.352848598" points="184 113.126593 138 114 138 110.791844 184 110"/><polygon id="Path" fill="#0373E2" opacity="0.352848598" points="184 117.038811 138 118 138 114.878613 184 114"/><polygon id="Path" fill="#0373E2" points="144 68 107 67.8802395 107 65 144 65.1766467"/><polygon id="Path" fill="#FFFFFF" fill-rule="nonzero" style="mix-blend-mode:soft-light" points="77 30 44 29.3428394 44 25 77 25.7315561"/><polygon id="Path" fill="#FFFFFF" fill-rule="nonzero" opacity="0.6" style="mix-blend-mode:soft-light" points="37 29.8619738 42 30 42 25.1552795 37 25"/><polygon id="Path" fill="#FFFFFF" fill-rule="nonzero" opacity="0.6" style="mix-blend-mode:soft-light" points="77 39 44 38.4423321 44 34 77 34.6368821"/><polygon id="Path" fill="#FFFFFF" fill-rule="nonzero" opacity="0.6" style="mix-blend-mode:soft-light" points="37 37.8821082 42 38 42 33.1317614 37 33"/><polygon id="Path" fill="#FFFFFF" fill-rule="nonzero" opacity="0.6" style="mix-blend-mode:soft-light" points="77 45 44 44.5460441 44 40 77 40.5350195"/><polygon id="Path" fill="#FFFFFF" fill-rule="nonzero" opacity="0.6" style="mix-blend-mode:soft-light" points="37 44.9093445 42 45 42 40.1080893 37 40"/><polygon id="Path" fill="#FFFFFF" fill-rule="nonzero" style="mix-blend-mode:soft-light" points="76 100.363118 19 101 19 96.4974651 76 96"/><polygon id="Path" fill="#FFFFFF" fill-rule="nonzero" opacity="0.6" style="mix-blend-mode:soft-light" points="77 109.497061 44 110 44 105.421293 77 105"/><polygon id="Path" fill="#FFFFFF" fill-rule="nonzero" opacity="0.6" style="mix-blend-mode:soft-light" points="37 110 42 109.898814 42 105 37 105.08374"/><polygon id="Path" fill="#FFFFFF" fill-rule="nonzero" opacity="0.6" style="mix-blend-mode:soft-light" points="77 115.396937 44 116 44 111.526484 77 111"/><polygon id="Path" fill="#FFFFFF" fill-rule="nonzero" opacity="0.6" style="mix-blend-mode:soft-light" points="37 117 42 116.875 42 112 37 112.107639"/><polygon id="Path" fill="#FFFFFF" fill-rule="nonzero" opacity="0.6" style="mix-blend-mode:soft-light" points="77 123.295072 44 124 44 119.626949 77 119"/><polygon id="Path" fill="#FFFFFF" fill-rule="nonzero" opacity="0.6" style="mix-blend-mode:soft-light" points="37 125 42 124.854772 42 120 37 120.131397"/><polygon id="Path" fill="#FFFFFF" fill-rule="nonzero" style="mix-blend-mode:soft-light" points="76 54 19 53.4350811 19 49 76 49.7022472"/><polygon id="Path" fill="#FFFFFF" fill-rule="nonzero" opacity="0.6" style="mix-blend-mode:soft-light" points="77 63 44 62.7784594 44 58 77 58.3067485"/><polygon id="Path" fill="#FFFFFF" fill-rule="nonzero" opacity="0.6" style="mix-blend-mode:soft-light" points="37 61.9542576 42 62 42 57.059817 37 57"/><polygon id="Path" fill="#FFFFFF" fill-rule="nonzero" opacity="0.6" style="mix-blend-mode:soft-light" points="77 69 44 68.9021663 44 64 77 64.1886792"/><polygon id="Path" fill="#FFFFFF" fill-rule="nonzero" opacity="0.6" style="mix-blend-mode:soft-light" points="37 68.9823071 42 69 42 64.0353857 37 64"/><polygon id="Path" fill="#FFFFFF" fill-rule="nonzero" opacity="0.6" style="mix-blend-mode:soft-light" points="77 84.8451795 44 85 44 80.0633357 77 80"/><polygon id="Path" fill="#FFFFFF" fill-rule="nonzero" opacity="0.6" style="mix-blend-mode:soft-light" points="37 85 42 84.9716714 42 80 37 80.0106232"/><polygon id="Path" fill="#FFFFFF" fill-rule="nonzero" opacity="0.6" style="mix-blend-mode:soft-light" points="77 93.7287088 44 94 44 89.1854396 77 89"/><polygon id="Path" fill="#FFFFFF" fill-rule="nonzero" opacity="0.6" style="mix-blend-mode:soft-light" points="37 94 42 93.9471086 42 89 37 89.0352609"/><polygon id="Path" fill="#FFFFFF" fill-rule="nonzero" opacity="0.6" style="mix-blend-mode:soft-light" points="77 76.9750357 44 77 44 72 77 72.064194"/><polygon id="Path" fill="#FFFFFF" fill-rule="nonzero" opacity="0.6" style="mix-blend-mode:soft-light" points="37 77 42 76.9929028 42 72.0141945 37 72"/><polygon id="Path" fill="#FFFFFF" fill-rule="nonzero" style="mix-blend-mode:soft-light" points="76 132.255725 19 134 19 128.576336 76 127"/><polygon id="Path" fill="#FFFFFF" fill-rule="nonzero" opacity="0.6" style="mix-blend-mode:soft-light" points="77 140.744338 44 142 44 136.151371 77 135"/><polygon id="Path" fill="#FFFFFF" fill-rule="nonzero" opacity="0.6" style="mix-blend-mode:soft-light" points="37 142 42 141.804795 42 137 37 137.174658"/><polygon id="Path" fill="#FFFFFF" fill-rule="nonzero" opacity="0.6" style="mix-blend-mode:soft-light" points="77 148.623687 44 150 44 144.274212 77 143"/><polygon id="Path" fill="#FFFFFF" fill-rule="nonzero" opacity="0.6" style="mix-blend-mode:soft-light" points="37 150 42 149.782016 42 145 37 145.200954"/><polygon id="Path" fill="#FFFFFF" fill-rule="nonzero" opacity="0.6" style="mix-blend-mode:soft-light" points="77 155.508 44 157 44 151.392 77 150"/><polygon id="Path" fill="#FFFFFF" fill-rule="nonzero" opacity="0.6" style="mix-blend-mode:soft-light" points="37 157 42 156.759159 42 152 37 152.220488"/><polygon id="Path" fill="#FFFFFF" fill-rule="nonzero" opacity="0.6" style="mix-blend-mode:soft-light" points="84 155.941908 83 156 83 18 84 18.0387281"/></g><g id="Man" transform="translate(242.433863, 209.533529) scale(-1, 1) rotate(-4.000000) translate(-242.433863, -209.533529) translate(182.532875, 94.317585)"><path d="M20.7585312,30.9725863 C19.7147596,31.391648 3.77352028,38.0907329 0.502663745,55.6795196 C0.234743756,57.1019684 -2.32724114,72.2058963 7.36811346,82.8890184 C18.235618,94.858837 39.1836122,94.5637231 47.4668051,84.5593629 C49.1319955,82.5085532 50.3395403,80.0878781 51,77.47663 L51,77.47663 L48.8119868,71.326457 C46.1383685,67.9149406 42.5047037,67.1122309 40.5622838,66.604635 C35.773214,65.3533522 32.1618758,67.6080222 29.3989509,65.1703816 C27.8807376,63.8187601 27.5793276,61.8769108 27.305826,60.135739 C26.3904327,54.2334616 29.5384925,50.5858542 29.7785042,46.9382467 C29.9515359,44.2113946 30.8501842,38.2323875 27.4844393,34.3368845 C25.3801511,31.8579279 22.4274495,31.1909706 20.7585312,30.9725863 Z" id="Path" fill="url(#linearGradient-4)"/><path d="M12.7721828,220.869329 C12.623882,219.600519 9.96345596,218.449577 8.64223087,220.175991 C7.99060625,221.021864 8.21377187,223.89114 8.75304742,223.898114 C10.5641145,223.905007 12.9429533,222.138139 12.7721828,220.869329 Z" id="Path" fill="#26264F" fill-rule="nonzero"/><path d="M10.423888,223.237706 L6.95577866,222.781473 C8.56170121,220.977759 8.26557365,215.237706 8.26557365,215.237706 L11.9557787,216.001632 C11.9557787,216.001632 11.5343664,217.593144 10.8168265,219.906141 C10.5540836,220.999722 10.4222991,222.117069 10.423888,223.237706 Z" id="Path" fill="url(#linearGradient-5)"/><path d="M10.687745,220.72937 C10.687745,220.72937 6.5118686,219.568013 6.06180826,220.564444 C5.61174792,221.560874 5.258536,224.247802 7.90762537,224.158467 C11.8538429,223.858608 10.9270175,221.574618 10.687745,220.72937 Z" id="Path" fill="#26264F" fill-rule="nonzero"/><path d="M57.3362052,226.590845 C58.6320753,225.162354 61.1734667,225.673841 61.433067,226.718691 C61.6603305,227.643905 58.1406233,229.301567 55.9080399,230.005959 C55.6188322,230.162177 55.2773444,230.285733 54.8779533,230.364513 C52.2131558,230.890144 52.2479898,228.200552 52.584718,227.142463 C52.9214462,226.084375 57.2756904,226.521263 57.2756904,226.521263 C57.2889585,226.551186 57.3016072,226.583523 57.3135242,226.61808 Z" id="Combined-Shape" fill="#26264F" fill-rule="nonzero"/><path d="M57.2240409,227.444068 L52.7739685,227.444068 C54.452695,225.355179 52.9838093,219.444068 52.9838093,219.444068 L57.7739685,219.732957 C57.7739685,219.732957 57.54242,221.427401 57.0865589,223.932957 C56.9663816,225.103691 57.0124802,226.28099 57.2240409,227.444068 Z" id="Path" fill="url(#linearGradient-6)"/><path d="M67.5901997,95.0656801 C70.1176051,103.152575 71.9839466,111.419159 73.1719772,119.789042 C77.5484652,150.563063 68.2513536,151.547922 69.9890768,185.650087 C70.5741688,196.53448 60.2414444,221.637069 59.3345519,222.19176 C58.8621013,222.236033 58.387216,222.251157 57.9127783,222.237041 C56.6832379,222.202306 55.4636873,222.01202 54.2852081,221.67103 C52.6528014,221.399345 46.7667761,205.981204 48.1300404,196.811825 C49.0954422,190.325338 48.814598,183.363403 48.2587607,169.439531 C48.165146,167.175487 42.1972077,125.534054 42.1972077,125.534054 L42.1972077,125.534054 C40.3834226,140.952195 38.2946442,154.049691 36.48671,164.203929 C30.6708957,196.828805 11.7665738,216.57693 10.7777684,216.888237 C10.584688,216.967478 8.81185933,217.59009 7.36083121,216.667492 C6.98534283,216.438255 6.68500965,216.110417 6.49489508,215.722254 C5.98586506,215.337366 6.64116808,183.148318 12.410175,158.923046 C20.7769903,123.76244 17.1377182,115.538299 19.7881849,99.831493 C22.0758945,86.2245876 67.5901997,95.0656801 67.5901997,95.0656801 Z" id="Path" fill="url(#linearGradient-7)" fill-rule="nonzero"/><path d="M71.0561323,97.8627638 C66.0110033,100.359369 53.0193558,104.847585 37.5257002,102.617663 C31.8156359,101.784125 26.2882601,100.041211 21.1686757,97.4599024 L20.8104069,97.2840052 C24.8335889,85.5272628 21.6855224,79.2403561 20.2230811,73.4527706 C18.1028348,65.1856018 18.0675953,65.8097532 16.3232375,59.2675119 C13.4394677,48.4299742 12.969607,37.3597983 14.9488951,35.095831 C20.2876869,28.9904957 29.9022109,28.7635315 34.9179735,28.6216789 C40.497569,28.4628041 53.3247653,26.5619794 60.3844218,32.7013594 C60.5077602,32.8034932 59.0570654,33.5524749 59.797096,34.3581976 C61.6532539,36.5149984 63.2970597,38.8344111 64.70714,41.2862779 C66.5014646,44.4545072 67.908733,47.8133948 68.9006465,51.2953965 C70.6237965,56.9969772 71.7319071,62.8554521 72.2072909,68.7773093 C72.2836433,69.7362328 72.3482491,70.6724599 72.4069817,71.5746423 C73.346703,86.032258 72.1544316,93.0227535 71.0561323,97.8627638 Z" id="Path" fill="url(#linearGradient-8)"/><path d="M50.5886831,22.6985285 C52.1315468,19.6392682 51.1188564,16.3373974 50.8865333,15.6273176 C49.9393699,12.668652 49.6355627,12.2011828 49.0219915,11.597615 L48.1522691,10.81061 L48.0390861,10.7455193 C47.0312836,10.3273547 45.9678551,10.0562922 44.8818748,9.94076227 C43.4402802,9.94076227 40.8787692,15.2663604 39.7588527,23.278427 L39.4193036,24.1601093 C38.7104203,26.0063167 38.126634,27.81702 37.6322028,29.5685501 C27.9878159,31.0597176 26.7249313,32.2846052 26.7249313,32.9414289 C26.7249313,34.3201671 32.3721697,35.5273027 36.5718564,35.8409213 C45.7277691,36.5273317 54.8836819,33.5094927 54.7228428,31.8289707 C54.6513588,31.1011389 52.78086,30.2727125 45.0248429,29.8052434 C45.1201549,28.5330171 45.2095099,27.2548736 45.298865,25.9826474 C45.9243502,25.7992101 49.4508957,24.9530317 50.5886831,22.6985285 Z" id="Path" fill="url(#linearGradient-9)"/><path d="M49.2828639,9.80676688 C48.8743305,12.2606779 47.4570726,14.661243 46.8871432,14.9694637 C46.546638,15.1766322 46.2367005,15.4468117 45.9692039,15.7696521 C45.905428,15.8509837 45.8496004,15.9404507 45.8027644,16.0363815 C45.0916136,17.4767206 46.8871432,19.7765213 46.3676501,20.3751807 C45.9944221,20.8138025 44.6780366,19.8180125 44.4409864,20.215143 C44.2039361,20.6122736 45.2580532,21.7029007 44.9957848,22.1474498 C44.7990835,22.4853071 44.1232381,21.9874121 43.5734833,22.4438158 C43.2960841,22.6749814 43.3263458,22.9180015 42.9430305,23.7241172 C42.7430259,24.1439431 42.5100016,24.5408311 42.2470106,24.9095815 C41.2887223,26.1839556 39.1552701,26.2491561 38.8576963,25.5793688 C38.7769984,25.3956218 38.8930017,25.2830027 38.8576963,24.7199072 C38.831288,24.3144957 38.756586,23.9154476 38.6357769,23.534443 C38.3482905,22.6157082 37.4253076,21.7918105 36.53763,20.6834014 C34.8934091,18.6325483 34.600879,17.1270087 34.520181,16.6409683 C34.4899193,16.4631487 34.4798321,16.3268203 34.4697448,16.2319831 C34.2679999,14.311531 34.7017515,11.6501638 35.6650833,10.1683335 C37.2739989,7.6966405 39.6999813,9.57560135 42.2671851,7.35878319 C45.2530096,4.78632575 44.486379,0.174869797 45.9036369,0.00297747941 C47.4873343,-0.145205553 50.0444509,5.26643878 49.2828639,9.80676688 Z" id="Path" fill="#26264F" fill-rule="nonzero"/><path d="M47.1694972,16.9715105 C46.4318573,15.642726 44.4254768,16.4533681 44.0812449,17.9576524 C43.7370129,19.4619367 45.0647647,21.3005064 46.8252653,21.3005064 C48.5857658,21.3005064 48.1530171,18.7599374 47.1694972,16.9715105 Z" id="Path" fill="url(#linearGradient-10)"/><path d="M70.762464,99.09776 C66.0673379,101.673438 53.9769783,106.303804 39.5581859,104.003255 C34.244254,103.143318 29.1003366,101.345203 24.3359203,98.6821393 C26.0084565,97.2889319 28.0690648,94.9532606 31.474261,90.9843755 C35.6009435,86.1842491 40.4381805,87.9755158 43.2803988,89.813613 C45.3292702,91.1108525 47.8661262,91.1500807 49.9491132,89.9167333 C52.0321002,88.6833859 53.3501833,86.3616282 53.4140004,83.8134549 C53.4387268,82.4747498 53.3876188,81.1356709 53.2609579,79.8035932 C52.2880447,68.8862324 66.4116836,67.9554762 66.4116836,67.9554762 C68.4067022,66.8432517 70.2978706,68.6345184 72.019599,71.9594841 C72.8941278,86.8925604 71.7845694,94.1044577 70.762464,99.09776 Z" id="Path" fill="#B8B8B8" fill-rule="nonzero" opacity="0.3" style="mix-blend-mode:multiply"/><path d="M119.381071,47.0111986 C118.88247,47.069915 118.234288,47.6864375 117.790534,47.9858912 C117.167282,48.4027779 116.534059,48.8137928 115.89585,49.2071929 C114.690797,50.0208992 113.330811,50.4631938 111.941944,50.4930826 C111.985414,50.253397 112.048878,50.0193527 112.131412,49.7943571 C112.370741,49.1367332 112.684859,48.5671839 112.495391,48.367548 C112.226146,48.0798375 111.044462,48.6728734 109.952526,49.9059184 C109.481519,50.4243735 109.073776,51.0171728 108.740925,51.6674111 C108.182492,52.7888949 108.277226,53.3995457 107.808541,54.2509339 C107.464064,54.6492568 107.050848,54.9556426 106.596941,55.1492952 L106.596941,55.3782892 L106.671731,55.6659997 C106.103797,56.1516258 105.472197,56.5245111 104.801977,56.7698685 C105.769263,57.0751939 106.711619,57.3570328 107.673919,57.697588 L108.342044,59.0069643 C108.342044,59.0069643 111.981832,58.108603 114.180662,56.5408745 C115.311442,55.875276 115.898008,54.3741665 115.591703,52.9298143 C115.567448,52.8220181 115.537473,52.7161204 115.501955,52.6127456 C115.501955,52.6127456 118.493561,51.1448349 119.690203,47.974148 C119.864714,47.5161598 119.884658,46.9524821 119.381071,47.0111986 Z" id="Path" fill="url(#linearGradient-11)"/><path d="M106.988742,56.1746019 C108.542199,57.2657566 109.766035,58.7387757 110.533581,60.4411976 C108.146909,65.9867722 104.178115,70.7605019 99.0910899,74.2044098 C88.0355153,81.5264386 71.8191553,81.7741765 60.5189128,73.4226593 C47.0280392,63.4470832 44.7691287,44.3217236 50.4363198,36.1298597 C51.0906642,35.1829507 53.2357757,32.0834753 56.5643969,31.7256318 C58.6696788,31.4999151 61.5317241,32.3367184 66.055235,37.4621386 C75.4777937,48.136886 72.1491724,54.8037859 77.7196344,57.9252824 C86.0667923,62.6433116 98.4765752,50.4105686 106.988742,56.1746019 Z" id="Path" fill="url(#linearGradient-12)"/></g><g id="Woman" transform="translate(66.819742, 73.479888) scale(-1, 1) translate(-66.819742, -73.479888) translate(8.110360, 10.469144)"><path d="M43.7319604,15.19091 C41.3755566,14.5021746 38.2259464,18.8280521 35.6064303,22.4265011 C31.6906986,27.8048282 27.0939701,34.0924408 28.3476234,41.6375759 C29.5587143,49.0627627 35.9237129,54.8473663 37.7384146,54.019336 C39.2861346,53.3112541 36.3067736,48.3159878 38.5935299,41.6375759 C40.439186,36.2476409 43.4920638,36.2476409 45.55827,30.962177 C48.0887922,24.4037134 46.6300661,16.0382867 43.7319604,15.19091 Z" id="Path" fill="url(#linearGradient-13)" fill-rule="nonzero"/><path d="M42.5634318,49.3955225 C30.4331761,52.3400598 22.4430715,57.0683445 17.7728263,60.415289 C15.2423041,62.2261215 14.0737755,63.3559571 13.4430796,65.0042789 C9.8484998,74.3950701 28.3127997,88.6070092 30.2822734,90.0812126 L32.8592272,84.0683203 C30.9516623,73.5979943 27.774967,70.3129586 25.1206271,69.3340257 C24.3777215,69.0593054 23.1318069,68.7691079 23.1550227,68.4170016 C23.2130622,67.585102 30.2242339,68.7691079 36.9297309,66.3159716 C43.6352279,63.8628354 50.3252477,57.6835632 49.1257647,53.593713 C48.897476,52.8469381 47.9881904,50.6878687 42.5634318,49.3955225 Z" id="Path" fill="url(#linearGradient-14)"/><path d="M30.8007596,118.036905 C30.8007596,118.036905 31.9305952,118.423835 31.9344741,119.333121 C31.9383338,120.242406 30.7736745,124.162007 29.5432371,125.558825 C28.3127997,126.955642 28.1812435,124.870089 28.2586295,123.527442 C28.3360155,122.184795 28.6455595,119.178349 28.9705807,118.594085 C29.2956019,118.00982 30.8007596,118.036905 30.8007596,118.036905 Z" id="Path" fill="#26264F" fill-rule="nonzero"/><path d="M27.1713561,63.1199298 C24.9697244,63.0773675 19.819686,62.6672217 18.426738,65.2209597 C17.265948,67.3490747 19.2895919,70.5799403 20.527768,72.5726298 C23.8863204,77.9896499 27.1481403,78.5274826 29.4465046,81.8589499 C30.5688108,83.5402786 31.2354349,85.4841546 31.3811546,87.5003894 L32.84375,84.0876668 C30.9361851,73.6173408 27.7594898,70.3284358 25.1051499,69.3533722 C24.3622443,69.0786519 23.1163297,68.7884544 23.1395455,68.4363481 C23.197585,67.6044485 30.2087567,68.7884544 36.9142537,66.3353181 C43.004532,64.1066013 49.1025489,58.7708365 49.2302358,54.7467645 C39.6111558,61.6457265 32.3330024,63.2244009 27.1713561,63.1199298 Z" id="Path" fill="url(#linearGradient-15)" opacity="0.5"/><path d="M31.450802,114.241122 C31.3850239,115.618593 31.2689449,116.767775 31.1644738,117.62289 C30.9284465,119.514978 30.715635,120.261753 30.4215682,120.94275 C30.1661944,121.538622 29.5277599,122.834838 29.2220852,122.741974 C28.9164105,122.649111 29.2220852,121.21747 29.4735897,117.228222 C29.5084134,116.647827 29.6128845,114.802171 29.6128845,114.802171 L29.6128845,114.802171 L31.450802,114.241122 Z" id="Path" fill="url(#linearGradient-16)" fill-rule="nonzero"/><path d="M49.5591263,50.1809904 C44.1684386,53.4168882 39.3763427,57.5584318 35.3936188,62.4234558 C32.2788322,66.2463242 27.542809,72.0580129 25.8248397,80.7213757 C24.9116849,85.34132 25.3605237,89.4853404 26.2968943,97.5799161 C27.0378015,103.992368 28.1436355,110.357373 29.6090152,116.643957 L31.218644,117.290131 C33.3000154,113.512128 34.6569312,109.378391 35.2195003,105.101835 C36.3222508,96.34174 33.0449536,93.555844 34.6197588,87.3417481 C35.9817524,81.9595517 39.9323077,78.6590388 47.8295491,72.0580129 C54.3183653,66.6409928 60.3003032,63.4178659 62.5328893,56.6543294 C62.9198194,55.4935394 63.2293634,54.096722 62.6141446,52.8043758 C61.2792361,50.0262184 56.2104531,49.0550241 49.5591263,50.1809904 Z" id="Path" fill="url(#linearGradient-17)"/><path d="M55.1425262,15.693919 C53.3278245,15.306989 50.3407249,15.3805057 47.4967893,13.140181 C46.641674,12.4669228 43.6274893,10.0756953 43.9757263,6.65910338 C44.3007475,3.64878793 47.1524216,2.01594331 47.5006586,1.83795551 C49.5204333,0.727466394 51.5363386,0.975101597 53.7689247,1.2807763 C56.6631612,1.66770631 57.6382248,2.46478212 59.6347836,3.00648413 C64.6145728,4.34913124 66.293849,1.54775801 71.3084619,1.78765461 C77.7121535,2.08946001 78.273202,6.81774468 83.651529,6.93382368 C89.7031143,7.06924918 90.860035,1.1298736 96.8342343,0.143202085 C105.122275,-1.24587663 117.666546,7.67672929 117.415041,17.9651981 C117.268008,23.9045737 112.845398,30.7145418 107.192351,32.7614015 C103.899576,33.953146 100.343689,33.5739546 99.3299329,35.7136775 C98.6063738,37.2381817 100.23148,38.4221875 100.076708,41.0687888 C99.8793735,44.4931193 96.9309668,46.8959546 96.4550429,47.286754 C92.0363023,50.8890723 82.1386327,49.066632 75.3634883,43.9707638 C63.159716,34.7811762 65.0053721,17.8142954 55.1425262,15.693919 Z" id="Path" fill="url(#linearGradient-18)" fill-rule="nonzero"/><path d="M69.157131,14.4712202 C64.4717239,13.8942916 59.758402,13.5726646 55.0380551,13.5077645 C43.9099482,13.3568618 42.3157966,14.7691563 41.9095201,15.8293445 C41.13566,17.7639945 42.4512221,18.750666 41.7121858,22.1479115 C41.2710855,24.179294 41.68897,25.1040567 40.8338546,27.286342 C39.9787393,29.4686272 40.6519975,30.5559005 41.3910338,35.539559 C42.3312738,41.9161655 42.7646354,45.1547696 40.980888,47.7239849 C39.742712,49.5116015 38.3536333,49.6586349 38.4890588,50.5098809 C38.7676484,52.316844 45.016568,51.3185646 52.9292866,54.7893268 C55.0465941,55.7594988 57.1047736,56.8538353 59.0930816,58.0666239 C63.2332327,60.4965443 63.9993541,61.4290457 65.9146576,62.5279269 C71.9778508,66.0102969 81.0823138,66.346926 85.8531608,62.1409969 C87.6330388,60.5739303 88.9486008,58.2716968 88.34499,57.4204508 C87.5517835,56.2596608 83.9997661,58.8830462 80.7379461,57.2888946 C78.5788767,56.2325757 78.9890225,54.5262144 76.481716,52.5141783 C73.4791392,50.0919965 71.3897172,51.3533883 69.3428574,49.7824525 C66.1506849,47.325447 67.6016724,41.4402416 68.49935,31.5735264 C69.014771,25.8880045 69.2343275,20.1795351 69.157131,14.4712202 L69.157131,14.4712202 Z" id="Path" fill="url(#linearGradient-19)" fill-rule="nonzero"/><path d="M57.112,12.1805946 C58.6287656,13.1208345 61.0819018,14.3512719 61.36823,14.6840317 C61.6545582,15.0167915 53.9353046,16.3400921 49.1412419,13.9101717 C49.1412419,13.9101717 48.3983362,13.5000259 51.2887034,12.9196309 C51.9039221,12.7996826 51.7839738,11.6001995 51.7027185,10.3620235 L52.2792442,9.28635811 C52.2792442,9.28635811 55.5952343,11.2364853 57.112,12.1805946 Z" id="Path" fill="url(#linearGradient-20)" fill-rule="nonzero"/><path d="M53.2813929,8.562799 C53.2813929,8.562799 53.8772651,11.0894519 51.6524176,12.3353666 C49.6597281,13.4535943 46.2895677,8.87234301 46.9202636,7.16985098 C47.2692435,6.43958515 47.8986002,5.88139735 48.6653179,5.62213096 C49.2147586,5.44801246 51.3003113,5.51379056 52.1941196,7.27045279 C52.4301469,6.75970518 52.8480313,6.49659278 53.1304902,6.57397878 C53.4864658,6.67844988 53.540636,7.34783879 53.5522439,7.47939499 C53.5780863,7.8600221 53.4833137,8.2391127 53.2813929,8.562799 Z" id="Path" fill="url(#linearGradient-21)" fill-rule="nonzero"/><path d="M49.8338466,49.0588934 C52.1244722,50.0107412 52.4340162,52.0653395 55.6029729,53.2261295 C58.6248963,54.340488 59.6386529,52.9475399 62.6567069,53.8684333 C67.183788,55.2536428 68.9172344,59.6259518 69.621447,59.2119367 C70.3256597,58.7979216 69.6446628,54.6539013 66.7349492,51.9453912 C63.391874,48.8499512 59.7934249,50.2583764 57.653702,47.0313801 C56.8218025,45.7738576 56.1794987,43.7656909 56.9030578,42.2218402 C57.8897293,40.1285489 60.4589445,40.8559773 61.8209381,39.1264001 C64.2663358,36.0309601 58.5397717,30.4049978 60.1107075,25.6612359 C60.7375341,23.7691482 62.7302236,21.4050059 69.1610003,19.8108543 C69.0720064,24.5623547 68.8011554,28.5361259 68.5264351,31.5541799 C67.6287575,41.4208951 66.17777,47.3061005 69.3699425,49.763106 C71.4168023,51.3417804 73.5062243,50.07265 76.5088011,52.4948318 C79.008369,54.5068679 78.5982232,56.2132292 80.7650312,57.2695481 C84.0268512,58.8636997 87.5788686,56.2519222 88.3720751,57.4011043 C88.9563394,58.2446117 87.6601239,60.5545838 85.8802459,62.1216504 C81.1093989,66.3353181 72.0049359,65.9909504 65.9417427,62.5085804 C64.0070927,61.4096992 63.2603178,60.4771978 59.1201667,58.0472774 C57.1318587,56.8344888 55.0736792,55.7401523 52.9563717,54.7699803 C47.4039261,52.3361905 42.6756415,52.1001632 40.2495903,51.5507226 C45.0281759,48.3430729 47.9727132,48.2889027 49.8338466,49.0588934 Z" id="Path" fill="#F55D3E" fill-rule="nonzero"/><path d="M27.7130582,52.2858896 L56.7869788,53.6981841 C57.1881808,53.7178911 57.5541121,53.9334001 57.7659117,54.2747099 L58.5707261,55.5631868 C58.7560971,55.8601443 58.7619389,56.2352938 58.585904,56.5378792 C58.4098691,56.8404645 58.0808588,57.0208073 57.731088,57.0064357 L26.9314595,55.8456457 L27.7130582,52.2858896 Z" id="Path" fill="#282D33"/><path d="M1.01875707,36.2205552 L31.0600027,36.8086894 C31.9483358,36.8278023 32.761113,37.3128231 33.1997256,38.0855584 L43.6042735,56.3873477 L11.876013,55.1220866 C11.0055251,55.0869502 10.2113066,54.6156557 9.7633752,53.8684333 L0.144295262,37.7605372 C-0.0438695941,37.4459431 -0.0482934579,37.0544594 0.132714274,36.7356935 C0.313722006,36.4169277 0.652184726,36.2201484 1.01875707,36.2205552 L1.01875707,36.2205552 Z" id="Path" fill="#282D33"/><path d="M33.1997256,38.0778198 C32.761113,37.3050845 31.9483358,36.8200637 31.0600027,36.8009508 L30.3983524,36.8009508 C30.3355218,37.7383125 29.9916839,38.6349879 29.4116809,39.3740353 C27.5582862,41.6104908 24.4821926,40.23302 22.1876977,42.5971623 C19.6687833,45.1973319 21.9942327,48.2889027 19.7423,50.7226924 C17.3704191,53.2686918 13.55142,51.194747 9.12880999,52.8237223 L9.7633752,53.8839105 C10.2113066,54.6311329 11.0055251,55.1024274 11.876013,55.1375638 L43.6042735,56.4028249 L33.1997256,38.0778198 Z" id="Path" fill="#D7DCE0" opacity="0.1"/><path d="M52.0238704,52.2858896 C51.6988492,51.4191664 51.3712485,50.553733 51.0410682,49.6895893 C54.662733,48.6951792 59.6734766,47.2287145 64.8080378,45.3946662 C65.6445436,45.1400561 66.3735884,44.6163952 66.8819826,43.9049857 C69.5169759,40.4226157 62.8153483,34.2317356 62.9352966,26.2532389 C63.0165519,20.7085319 66.3751043,14.3706184 69.3389881,14.2971017 C75.3557497,14.1500683 88.6274489,39.6874486 77.4645183,50.5872669 C71.9043341,56.0120256 61.5384792,56.6427215 52.0238704,52.2858896 Z" id="Path" fill="url(#linearGradient-22)" fill-rule="nonzero"/><path d="M51.0410682,49.7050665 C48.7697891,48.4978449 46.0458018,49.7360209 45.8716833,49.8172762 C45.1400973,50.1661757 44.4759629,50.6416802 43.9099482,51.2218321 C43.8286929,51.3379111 42.8420214,52.703774 43.2018663,53.1564821 C43.4881945,53.5085884 44.6025529,53.2183909 45.9452,52.3826221 C46.7399716,52.2711958 47.5449358,52.2517209 48.344166,52.3245826 C50.1859529,52.4948318 51.0294603,53.0752268 51.6949799,52.5722178 C52.1792348,52.1423372 52.3669327,51.4687439 52.1747731,50.8503793 C51.9693801,50.3296466 51.5596816,49.9157533 51.0410682,49.7050665 Z" id="Path" fill="url(#linearGradient-23)" fill-rule="nonzero"/></g></g><g id="Books" transform="translate(86.040225, 272.403653) rotate(-1.000000) translate(-86.040225, -272.403653) translate(1.000000, 226.000000)"><g id="html" transform="translate(0.000000, 61.807307)"><path d="M156.153294,1.75578708 C156.153294,1.75578708 152.694271,19.3240603 156.159116,29.1490747 L82.301956,29.461512 L82.2961343,1.4730756 L156.153294,1.75578708 Z" id="Fill-1" fill="#FFFFFF"/><path d="M123.488951,13.2576804 L153.25832,17.6769072 C153.252183,16.3608179 153.274102,15.0499203 153.318232,13.7649811 L123.488951,13.2576804 Z" id="Fill-3" fill="#DDE3E9"/><path d="M154.394433,21.844435 L96.5005539,20.6230584 L154.738674,25.0422852 C154.587938,24.0061478 154.476979,22.9332454 154.394433,21.844435" id="Fill-5" fill="#DDE3E9"/><path d="M154.442561,11.7846048 C154.529493,10.2276563 154.631216,8.74473996 154.738674,7.36537801 L107.86409,7.69557101 L154.442561,11.7846048 Z" id="Fill-7" fill="#DDE3E9"/><path d="M85.0988528,1.4730756 C85.0988528,1.4730756 90.8173974,8.91406949 90.818786,16.7390095 C90.8215609,24.5655792 83.7165763,30.9345876 83.7165763,30.9345876 L85.0988528,1.4730756 Z" id="Fill-9" fill="#AFB9C5"/><path d="M87.4100612,26.9772363 L87.4051756,4.08513706 L156.697355,4.07054972 C157.808539,4.07024582 158.709333,3.17342814 158.709028,2.06722132 C158.708723,0.961622307 157.807623,0.065412363 156.696439,0.065412363 L2.60955641,0.0967144464 C1.16797959,0.0970183494 0,1.26035893 0,2.69508486 L0.00580178822,28.4028451 C0.00610714235,29.8375711 1.17500273,31 2.61657956,31 L156.703157,30.9699135 C157.81434,30.9696096 158.71483,30.072792 158.71483,28.9665851 L158.71483,28.9647617 C158.71483,27.8588588 157.81373,26.962345 156.702241,26.9626489 L87.4100612,26.9772363 Z" id="Fill-11" fill="url(#linearGradient-24)"/><path d="M159,28.9157058 L159,28.9135762 C159,27.8064769 158.10141,26.9092975 156.993696,26.9092975 L87.9179123,26.9239006 L87.9133463,4.00703626 L156.988826,3.99243313 C158.096539,3.9921289 158.994216,3.0940368 158.993912,1.98724173 C158.993608,0.937946457 158.183902,0.0867060461 157.15655,0 L86.3176788,0.0142988918 C84.8809083,0.0146031236 83.7165763,1.17920223 83.7165763,2.61548028 L83.7220555,28.3510517 C83.7223599,29.7319596 84.802373,30.8500112 86.1627389,30.9345876 L156.994305,30.9208972 C158.102323,30.920593 159,30.0225009 159,28.9157058" id="Fill-14" fill="#002E5F"/><path d="M73.7734829,14.7302006 C73.7734829,12.2889347 71.8648732,10.3115292 69.5113001,10.3115292 C67.1579411,10.3121957 65.2501886,12.2913784 65.2508312,14.7319779 C65.2519025,17.1714666 67.159655,19.1499828 69.5127997,19.1499828 C71.8665871,19.148872 73.7743396,17.1696894 73.7734829,14.7302006" id="Fill-16" fill="#002E5F"/><path d="M69.5112825,10.3115292 C67.1626776,10.3115292 65.2508308,12.2955664 65.2508308,14.7308856 C65.25158,17.1680172 67.1646753,19.1499828 69.5130305,19.1499828 C71.862884,19.1492061 73.774481,17.1659459 73.7734826,14.7290732 C73.7734826,12.2934951 71.8608862,10.3107527 69.5112825,10.3115292 M69.5137827,20.6230584 C66.3800494,20.6230584 63.8313897,17.9811717 63.8303889,14.7307562 C63.8293886,11.4821564 66.3782984,8.83923209 69.5107811,8.83845361 C72.6432637,8.83741636 75.1931741,11.4806 75.1939245,14.7289404 C75.1939245,17.9790966 72.6450147,20.6222803 69.5137827,20.6230584" id="Fill-18" fill="#DDE3E9"/><polygon id="Fill-57" fill="#FFFFFF" points="21.2171301 20.6230584 18.9919945 20.6230584 18.9919945 16.4240092 14.9125321 16.4240092 14.9125321 20.6230584 12.6944784 20.6230584 12.6944784 10.3115292 14.9125321 10.3115292 14.9125321 14.4245749 18.9919945 14.4245749 18.9919945 10.3115292 21.2171301 10.3115292"/><polygon id="Fill-59" fill="#FFFFFF" points="32.5806658 12.2030142 29.5226757 12.2030142 29.5226757 20.6230584 27.1002763 20.6230584 27.1002763 12.2030142 24.058014 12.2030142 24.058014 10.3115292 32.5806658 10.3115292"/><path d="M45.3646434,20.6230584 L43.1449407,20.6230584 L43.1449407,14.4539347 C43.1449407,13.7863692 43.1733359,13.05267 43.2281186,12.2472022 L43.1733359,12.2472022 C43.0566,12.8803663 42.9519106,13.3335161 42.8592676,13.6116931 L40.5225422,20.6230584 L38.6886128,20.6230584 L36.3091511,13.6855375 C36.2449034,13.4984056 36.1399271,13.0182686 35.9970906,12.2472022 L35.932556,12.2472022 C35.9945092,13.2617476 36.0231912,14.1535154 36.0231912,14.9216161 L36.0231912,20.6230584 L34.0011077,20.6230584 L34.0011077,10.3115292 L37.2906504,10.3115292 L39.3267881,16.4240092 C39.4888416,16.9115603 39.6081589,17.4041531 39.6818717,17.8967459 L39.7246079,17.8967459 C39.8485143,17.3279362 39.981599,16.8305984 40.1198464,16.4094775 L42.1588523,10.3115292 L45.3646434,10.3115292 L45.3646434,20.6230584 Z" id="Fill-61" fill="#FFFFFF"/><polygon id="Fill-63" fill="#FFFFFF" points="53.8872951 20.6230584 46.7850854 20.6230584 46.7850854 10.3115292 49.4716569 10.3115292 49.4716569 18.7389875 53.8872951 18.7389875"/></g><g id="c++" transform="translate(6.540111, 30.916743)"><path d="M156.129316,1.75962269 C156.129316,1.75962269 152.708334,19.3647664 156.135135,29.2105929 L83.0872064,29.5238095 L83.0810811,1.47619048 L156.129316,1.75962269 Z" id="Fill-20" fill="#FFFFFF"/><path d="M124.621622,13.2857143 L154.642537,17.7142857 C154.636282,16.3953286 154.658323,15.0820047 154.702703,13.7938433 L124.621622,13.2857143 Z" id="Fill-22" fill="#DDE3E9"/><path d="M154.355226,23.3666309 L95.972973,22.1428571 L154.702703,26.5714286 C154.550605,25.5327605 154.438742,24.4575725 154.355226,23.3666309" id="Fill-24" fill="#DDE3E9"/><path d="M154.413345,10.3333333 C154.498064,8.77312204 154.597699,7.2869656 154.702703,5.9047619 L108.864865,6.23547886 L154.413345,10.3333333 Z" id="Fill-26" fill="#DDE3E9"/><path d="M87.0613408,1.47619048 C87.0613408,1.47619048 91.6748265,8.93314497 91.6756757,16.7746487 C91.6776553,24.6174728 85.9459459,31 85.9459459,31 L87.0613408,1.47619048 Z" id="Fill-28" fill="#AFB9C5"/><path d="M86.7783662,26.9687658 L86.7734644,4.0284642 L155.564556,4.01369101 C156.668081,4.01338323 157.562053,3.11468085 157.561747,2.00638384 C157.56144,0.89808683 156.667162,0 155.563637,0 L2.59061854,0.0317008031 C1.15928345,0.0320085779 0,1.19785947 0,2.63516773 L0.00582098678,28.3974563 C0.00612735131,29.8350724 1.16632983,31 2.59735856,31 L155.570377,30.969838 C156.673902,30.9695302 157.567568,30.0708279 157.567568,28.9625308 L157.567568,28.9603764 C157.567568,27.8520794 156.672983,26.9539926 155.569458,26.9543004 L86.7783662,26.9687658 Z" id="Fill-30" fill="url(#linearGradient-25)"/><path d="M159,28.9766533 L159,28.9744966 C159,27.865307 158.093825,26.9659391 156.976695,26.9659391 L87.3178606,26.9804202 L87.3132072,4.01557437 L156.971731,4.00078518 C158.088861,4.00047707 158.994106,3.10080108 158.993795,1.99161151 C158.993485,0.939730057 158.177276,0.0868865168 157.141116,0 L85.7043664,0.0144810861 C84.2552929,0.0147891943 83.0810811,1.18190311 83.0810811,2.62076848 L83.0869755,28.4109667 C83.0872857,29.7946807 84.1764951,30.9152702 85.5477015,31 L156.977315,30.985827 C158.094756,30.985827 159,30.086151 159,28.9766533" id="Fill-32" fill="#0373E2"/><path d="M75.9189193,15.4993438 C75.9189193,12.645058 73.6734538,10.3333333 70.9042594,10.3333333 C68.1355744,10.3341208 65.8908737,12.6482079 65.8918923,15.5014437 C65.8929115,18.3536295 68.1376123,20.6666667 70.9062972,20.6666667 C73.675237,20.6656167 75.9201924,18.3515296 75.9189193,15.4993438" id="Fill-34" fill="#002E5F"/><path d="M70.9040691,10.3333333 C68.1407059,10.3333333 65.8918919,12.6531176 65.8918919,15.5003061 C65.8927826,18.3496359 68.1430812,20.6666667 70.9064444,20.6666667 C73.6706982,20.6657489 75.9201061,18.3471886 75.9189189,15.4978587 C75.9189189,12.6506703 73.6686198,10.3324158 70.9040691,10.3333333 M70.9072698,22.1428571 C67.3521122,22.1428571 64.4603202,19.1645355 64.4594595,15.5002956 C64.4583126,11.8381244 67.3498178,8.85832516 70.9038282,8.85714286 C74.4581254,8.85625647 77.3507778,11.8360557 77.3513514,15.4979314 C77.3513514,19.1621713 74.4598461,22.1419706 70.9072698,22.1428571" id="Fill-36" fill="#DDE3E9"/><path d="M25.8806786,10.3143611 C25.5715929,9.9069103 25.1912018,9.59293715 24.7392179,9.37585779 C24.287234,9.15660453 23.7656699,9.04728845 23.1739505,9.04728845 C22.5807936,9.04728845 22.0324899,9.17120071 21.5258769,9.41871466 C21.0207016,9.66653917 20.5836688,10.0109469 20.2130535,10.4562857 C19.8424382,10.8994506 19.553479,11.4270869 19.3441633,12.0370209 C19.1348476,12.6491288 19.0319149,13.3112364 19.0319149,14.0239648 C19.0319149,14.7506682 19.1348476,15.4165025 19.3441633,16.021157 C19.553479,16.6242588 19.8392754,17.148479 20.2032777,17.5916439 C20.5669925,18.0366721 20.993962,18.3813904 21.4859114,18.6289044 C21.9778608,18.8767289 22.506038,19.0006411 23.0724554,19.0006411 C23.7188039,19.0006411 24.2906843,18.8549899 24.7906843,18.5627557 C25.2875216,18.2720744 25.69954,17.8646235 26.0218516,17.3404033 L28.6486486,19.4580916 C28.0425532,20.3751665 27.2748706,21.0518703 26.3458884,21.4878924 C25.4171938,21.9239144 24.4600345,22.1428571 23.4764232,22.1428571 C22.3582519,22.1428571 21.3280621,21.9527962 20.3844163,21.57578 C19.4419206,21.197211 18.6265095,20.655289 17.9401955,19.9497034 C17.2521564,19.2444284 16.7173663,18.3885333 16.333525,17.3854341 C15.9496837,16.380161 15.7567568,15.2602923 15.7567568,14.0239648 C15.7567568,12.7873267 15.9496837,11.6674581 16.333525,10.6624955 C16.7173663,9.65939635 17.2521564,8.80505397 17.9401955,8.09791563 C18.6265095,7.39264062 19.4419206,6.85071861 20.3844163,6.47183903 C21.3280621,6.09327002 22.3582519,5.9047619 23.4764232,5.9047619 C23.8801035,5.9047619 24.3021852,5.94420265 24.7392179,6.02494747 C25.1762507,6.1056923 25.6081081,6.2314679 26.0316274,6.40724317 C26.4571593,6.58146567 26.8642898,6.81469399 27.2547441,7.10537537 C27.6451984,7.3963673 27.9956872,7.75319733 28.3067855,8.17493377 L25.8806786,10.3143611 Z" id="Fill-65" fill="#FFFFFF"/><polygon id="Fill-67" fill="#FFFFFF" points="31.5135135 14.8806946 35.9260794 14.8806946 35.9260794 10.3333333 38.5607047 10.3333333 38.5607047 14.8806946 42.972973 14.8806946 42.972973 17.5954959 38.5607047 17.5954959 38.5607047 22.1428571 35.9260794 22.1428571 35.9260794 17.5954959 31.5135135 17.5954959"/><polygon id="Fill-69" fill="#FFFFFF" points="45.8378378 14.8806946 50.2502207 14.8806946 50.2502207 10.3333333 52.8849144 10.3333333 52.8849144 14.8806946 57.2972973 14.8806946 57.2972973 17.5954959 52.8849144 17.5954959 52.8849144 22.1428571 50.2502207 22.1428571 50.2502207 17.5954959 45.8378378 17.5954959"/></g><g id="java" transform="translate(12.080450, 0.000000)"><path d="M152.293756,3.23549614 C152.293756,3.23549614 148.889947,20.8408408 152.299545,30.6867798 L79.6245322,31 L79.6187429,2.95238095 L152.293756,3.23549614 Z" id="Fill-38" fill="#FFFFFF"/><path d="M122.372156,14.7619048 L152.239687,19.1904762 C152.233168,17.871519 152.255392,16.5578197 152.299545,15.2700338 L122.372156,14.7619048 Z" id="Fill-40" fill="#DDE3E9"/><path d="M150.529033,21.8904404 L92.4447668,20.6666667 L150.874431,25.0952381 C150.723111,24.05657 150.611819,22.9817401 150.529033,21.8904404" id="Fill-42" fill="#DDE3E9"/><path d="M152.011371,11.8095238 C152.095953,10.2493125 152.194781,8.76315607 152.299545,7.38095238 L106.695904,7.71166934 L152.011371,11.8095238 Z" id="Fill-44" fill="#DDE3E9"/><path d="M85.0037802,1.47619048 C85.0037802,1.47619048 89.5936943,8.93281489 89.5945393,16.7746487 C89.5967901,24.6171427 83.8940842,31 83.8940842,31 L85.0037802,1.47619048 Z" id="Fill-46" fill="#AFB9C5"/><path d="M86.2199916,26.9647822 L86.2151213,4.08739604 L154.563882,4.07266337 C155.660002,4.07235644 156.548526,3.17642574 156.548221,2.07086139 C156.547917,0.96560396 155.659089,0.0702870498 154.562969,0.0702870498 L2.57394922,0.101594059 C1.15212844,0.10190099 4.54747351e-13,1.26455446 4.54747351e-13,2.69822772 L0.00578353168,28.3895545 C0.00608792491,29.8232277 1.15882509,30.9849605 2.58064588,30.9849605 L154.569665,30.9548812 C155.665785,30.9545743 156.554005,30.0583366 156.554005,28.9530792 L156.554005,28.9512376 C156.554005,27.8459802 155.664872,26.9500495 154.568752,26.9503564 L86.2199916,26.9647822 Z" id="Fill-48" fill="url(#linearGradient-26)" fill-rule="nonzero"/><path d="M158,28.9766533 L158,28.9744966 C158,27.865307 157.09815,26.9662472 155.987349,26.9662472 L86.684086,26.9804202 L86.679765,4.01557437 L155.982103,4.00078518 C157.09352,4.00047707 157.994136,3.10080108 157.993827,1.99161151 C157.993519,0.940038166 157.181174,0.0868865168 156.150621,0 L85.0788421,0.0144810861 C83.6371782,0.0147891943 82.4689704,1.18190311 82.4689704,2.62107659 L82.4748347,28.4109667 C82.4751433,29.7946807 83.5587833,30.9152702 84.9232868,31 L155.987658,30.9861351 C157.099384,30.985827 158,30.086151 158,28.9766533" id="Fill-51" fill="#F55D3E" fill-rule="nonzero"/><path d="M72.4931747,16.2376453 C72.4931747,13.7911768 70.5781552,11.8095238 68.2167472,11.8095238 C65.8557736,11.8104237 63.9418406,13.7936516 63.9424921,16.2392202 C63.9435784,18.6841138 65.8575114,20.6666667 68.218485,20.6666667 C70.5796758,20.6655418 72.4940433,18.6823139 72.4931747,16.2376453" id="Fill-53" fill="#002E5F"/><path d="M68.2165667,11.8095238 C65.8603945,11.8095238 63.9424915,13.7978515 63.9424915,16.2382265 C63.9435043,18.6804369 65.86242,20.6666667 68.2185923,20.6666667 C70.5757773,20.6656178 72.4939334,18.6783392 72.4931741,16.2361288 C72.4931741,13.7957538 70.5742581,11.8087374 68.2165667,11.8095238 M68.2194816,22.1428571 C65.0754876,22.1428571 62.5181391,19.4954013 62.5173777,16.2382267 C62.5161101,12.9828911 65.0734586,10.3341217 68.2161844,10.3333333 C71.3594176,10.3322829 73.917527,12.9810522 73.9182879,16.2361252 C73.9182879,19.4932997 71.3609394,22.1420691 68.2194816,22.1428571" id="Fill-55" fill="#DDE3E9"/><path d="M12.638396,18.435222 C12.638396,19.0976694 12.5927281,19.742331 12.5009311,20.3654164 C12.4093648,20.9899596 12.2359192,21.5421935 11.9782879,22.0238674 C11.720426,22.5035003 11.3536993,22.890997 10.876724,23.1825671 C10.3997486,23.4741373 9.77539066,23.6190476 9.00318879,23.6190476 C8.10251726,23.6190476 7.34046381,23.3473042 6.71887359,22.8058585 C6.09728338,22.2647043 5.6948066,21.4174015 5.51282713,20.26395 L7.81305688,19.5525188 C7.84465535,19.9053187 7.97081855,20.2041781 8.19131586,20.4467645 C8.41042929,20.6911002 8.65952667,20.8123934 8.93883863,20.8123934 C9.22829901,20.8123934 9.45294794,20.7220067 9.61347736,20.5391922 C9.77539066,20.3560862 9.89278933,20.1280783 9.96728789,19.8583759 C10.0431703,19.5866325 10.0888382,19.2915636 10.1047527,18.9728774 C10.1204367,18.6541912 10.1292012,18.3608717 10.1292012,18.0894199 L10.1292012,8.85714286 L12.638396,8.85714286 L12.638396,18.435222 Z" id="Fill-71" fill="#FFFFFF"/><path d="M21.1810471,13.2857143 L19.7639648,17.7142857 L22.6141923,17.7142857 L21.1810471,13.2857143 Z M19.9325314,8.85714286 L22.4076652,8.85714286 L28.3146474,23.6190476 L24.9394648,23.6190476 L23.7692915,20.4923641 L18.494434,20.4923641 L17.3619461,23.6190476 L14.0635097,23.6190476 L19.9325314,8.85714286 Z" id="Fill-73" fill="#FFFFFF"/><polygon id="Fill-75" fill="#FFFFFF" points="26.8895336 8.85714286 30.5136988 8.85714286 34.0777239 18.5316841 34.11772 18.5316841 37.7418851 8.85714286 41.1406713 8.85714286 35.1964448 23.6190476 32.6510045 23.6190476"/><path d="M48.2582086,13.2857143 L46.8411263,17.7142857 L49.6913539,17.7142857 L48.2582086,13.2857143 Z M47.0096929,8.85714286 L49.4848268,8.85714286 L55.3918089,23.6190476 L52.0166263,23.6190476 L50.846453,20.4923641 L45.5715955,20.4923641 L44.4391076,23.6190476 L41.1406713,23.6190476 L47.0096929,8.85714286 Z" id="Fill-77" fill="#FFFFFF"/></g></g></g></g></svg>