<svg xmlns="http://www.w3.org/2000/svg" xmlns:xlink="http://www.w3.org/1999/xlink" width="548.684" height="579.355" viewBox="0 0 548.684 579.355">
  <defs>
    <linearGradient id="linear-gradient" x1="0.5" x2="0.5" y2="1" gradientUnits="objectBoundingBox">
      <stop offset="0" stop-color="#00d4ff"/>
      <stop offset="0.268" stop-color="#f2843d"/>
      <stop offset="1" stop-color="#0023cf"/>
    </linearGradient>
    <linearGradient id="linear-gradient-3" x1="0.5" x2="0.5" y2="1" gradientUnits="objectBoundingBox">
      <stop offset="0" stop-color="#00025c"/>
      <stop offset="1" stop-color="#00d4ff"/>
    </linearGradient>
    <linearGradient id="linear-gradient-4" x1="0.5" x2="0.5" y2="1" gradientUnits="objectBoundingBox">
      <stop offset="0" stop-color="#5f1478"/>
      <stop offset="1" stop-color="#00025c"/>
    </linearGradient>
    <clipPath id="clip-path">
      <circle id="Elipse_388" data-name="Elipse 388" cx="158.631" cy="158.631" r="158.631" fill="#fff" stroke="#707070" stroke-width="1"/>
    </clipPath>
    <radialGradient id="radial-gradient" cx="0.5" cy="0.5" r="0.5" gradientUnits="objectBoundingBox">
      <stop offset="0" stop-color="#25ff09"/>
      <stop offset="1" stop-color="#c2c25ff093c7" stop-opacity="0"/>
    </radialGradient>
    <radialGradient id="radial-gradient-2" cx="0.5" cy="0.5" r="0.5" gradientUnits="objectBoundingBox">
      <stop offset="0" stop-color="#fff"/>
      <stop offset="1" stop-color="#fff" stop-opacity="0"/>
    </radialGradient>
    <radialGradient id="radial-gradient-3" cx="0.5" cy="0.5" r="0.5" gradientUnits="objectBoundingBox">
      <stop offset="0" stop-color="#2561cf"/>
      <stop offset="1" stop-color="#00d4ff" stop-opacity="0"/>
    </radialGradient>
    <radialGradient id="radial-gradient-4" cx="0.5" cy="0.5" r="0.5" gradientUnits="objectBoundingBox">
      <stop offset="0" stop-color="#bf3c5f"/>
      <stop offset="1" stop-color="#bf3c5f" stop-opacity="0"/>
    </radialGradient>
    <radialGradient id="radial-gradient-5" cx="0.5" cy="0.5" r="0.376" gradientUnits="objectBoundingBox">
      <stop offset="0" stop-color="#00d4ff"/>
      <stop offset="0.569" stop-color="#fd800b" stop-opacity="0.204"/>
      <stop offset="1" stop-color="#ff7b00" stop-opacity="0"/>
    </radialGradient>
    <radialGradient id="radial-gradient-6" cx="0.5" cy="0.5" r="0.376" gradientUnits="objectBoundingBox">
      <stop offset="0" stop-color="#00025c"/>
      <stop offset="1" stop-color="#ff7b00" stop-opacity="0"/>
    </radialGradient>
    <clipPath id="clip-path-2">
      <path id="Caminho_8769" data-name="Caminho 8769" d="M1423.176,52.017c26.644,11.605,40.836,29.267,40.836,51.025l-.647,110.093-.052.4c-3.334,25.8-18.568,52.077-45.084,77.926-20.9,20.37-44.124,35.931-59.843,45.354a31.645,31.645,0,0,1-17.223,4.454,32.774,32.774,0,0,1-17.111-5.416c-15.422-10.171-37.878-26.586-57.749-47.3-24.775-25.826-38.792-51.365-41.839-76.072l-.048-.387-.59-105.2c0-20.745,13.014-38.242,37.817-50.692,20.865-10.474,49.055-16.76,79.52-17.641q3.677-.106,7.317-.106c28.1,0,54.434,4.727,74.7,13.553" transform="translate(-1223.826 -38.464)" fill="#00d4ff"/>
    </clipPath>
    <clipPath id="clip-path-3">
      <path id="Caminho_8770" data-name="Caminho 8770" d="M1466.389,52.017c26.292,11.605,40.3,29.267,40.3,51.025l-.638,110.093-.052.4c-3.289,25.8-18.323,52.077-44.488,77.926-20.62,20.37-43.541,35.931-59.052,45.354a30.91,30.91,0,0,1-17,4.454,32.045,32.045,0,0,1-16.884-5.416c-15.218-10.171-37.377-26.586-56.986-47.3-24.448-25.826-38.28-51.365-41.286-76.072l-.047-.387-.582-105.2c0-20.745,12.842-38.242,37.317-50.692,20.589-10.474,48.407-16.76,78.469-17.641q3.628-.106,7.221-.106c27.728,0,53.715,4.727,73.71,13.553" transform="translate(-1269.673 -38.464)" fill="url(#linear-gradient)"/>
    </clipPath>
    <linearGradient id="linear-gradient-6" x1="-0.367" y1="-0.364" x2="-0.366" y2="-0.364" xlink:href="#linear-gradient"/>
    <clipPath id="clip-path-4">
      <path id="Caminho_8771" data-name="Caminho 8771" d="M1539.4,136.787l-.643,109.537c-7.21,55.889-72.892,101.138-101.5,118.33a25.255,25.255,0,0,1-26.809-.722c-28.01-18.431-90.094-64.831-96.728-118.565l-.589-104.905c0-40.231,60.462-61.568,118.875-61.569,54.592,0,107.392,18.633,107.392,57.894" transform="translate(-1313.131 -78.893)" fill="url(#linear-gradient)"/>
    </clipPath>
    <linearGradient id="linear-gradient-7" x1="-0.502" y1="-0.358" x2="-0.502" y2="-0.358" xlink:href="#linear-gradient"/>
    <clipPath id="clip-path-5">
      <path id="Caminho_8772" data-name="Caminho 8772" d="M1603.076,212.651c16.038,7.078,24.22,15.924,24.246,26.26l-.629,107.723c-2.838,19.245-15.212,39.736-36.667,60.811-19.864,19.511-42.7,34.451-54.475,41.584a3.911,3.911,0,0,1-2.12.561,4.051,4.051,0,0,1-2.118-.661c-11.707-7.649-34.1-23.379-53.278-43.223-20.392-21.1-32.006-41.181-34.654-59.8l-.586-103.994c.024-9.979,7.672-18.828,22.8-26.333,17.1-8.486,41.785-13.73,67.838-14.349q2.6-.062,5.194-.062c24.442,0,47.729,4.1,64.451,11.485" transform="translate(-1442.794 -201.166)" fill="url(#linear-gradient-3)"/>
    </clipPath>
    <clipPath id="clip-path-6">
      <rect id="Retângulo_11046" data-name="Retângulo 11046" width="470.306" height="468.355" fill="none"/>
    </clipPath>
    <clipPath id="clip-path-7">
      <path id="Caminho_8774" data-name="Caminho 8774" d="M1707.062,804.031l80.1.713c6.157.055,11.175,4.855,11.175,10.718v51.321c0,5.829-5,10.347-11.134,10.1l-79.818-3.268a10.749,10.749,0,0,1-10.31-10.5l-.254-49.027a10.039,10.039,0,0,1,10.145-10.052h.095" transform="translate(-1696.821 -804.031)" fill="url(#linear-gradient-4)"/>
    </clipPath>
    <linearGradient id="linear-gradient-9" x1="-2.471" y1="-1.896" x2="-2.47" y2="-1.896" xlink:href="#linear-gradient-4"/>
    <clipPath id="clip-path-8">
      <path id="Caminho_8775" data-name="Caminho 8775" d="M1955.493,921.437a10.594,10.594,0,0,1,9.917,9.677,9.648,9.648,0,0,1-5.165,9.117,3.576,3.576,0,0,0-1.8,3.818l2.315,12.965a2.606,2.606,0,0,1-2.738,3.041l-5.86-.206a2.82,2.82,0,0,1-2.733-3.217l2.24-12.842a3.823,3.823,0,0,0-1.911-3.889,10.239,10.239,0,0,1-5.057-8.692,9.885,9.885,0,0,1,10.093-9.8c.23,0,.461.007.694.022" transform="translate(-1944.706 -921.415)" fill="#c6c6c6"/>
    </clipPath>
    <clipPath id="clip-path-9">
      <path id="Caminho_8776" data-name="Caminho 8776" d="M1829.9,533.55l0,11.581a4.532,4.532,0,0,1-4.675,4.421,4.589,4.589,0,0,1-4.662-4.464l-.01-11.533c-.01-11.583-9.854-20.92-21.827-20.8l-26.145.26a20.771,20.771,0,0,0-20.8,20.58l.049,11.179a4.273,4.273,0,0,1-4.341,4.269,4.37,4.37,0,0,1-4.362-4.309l-.054-11.135c-.077-15.916,13.049-29.068,29.481-29.3l26.156-.364c.151,0,.3,0,.451,0,16.878,0,30.731,13.206,30.737,29.614" transform="translate(-1743.069 -503.936)" fill="url(#linear-gradient-4)"/>
    </clipPath>
    <linearGradient id="linear-gradient-10" x1="-3.611" y1="-3.18" x2="-3.609" y2="-3.18" xlink:href="#linear-gradient-4"/>
    <clipPath id="clip-path-11">
      <path id="Caminho_8779" data-name="Caminho 8779" d="M473.283,1281.7a8.9,8.9,0,0,1,8.734,9.06v200.457a8.159,8.159,0,0,1-8.734,8.417l-269.189-19.816c-3.968-.292-7.177-4.2-7.177-8.718v-181.21c0-4.523,3.209-8.19,7.177-8.19Z" transform="translate(-196.917 -1281.699)" fill="none"/>
    </clipPath>
    <linearGradient id="linear-gradient-11" x1="1.116" y1="1.163" x2="1.115" y2="1.163" gradientUnits="objectBoundingBox">
      <stop offset="0" stop-color="#444b8c"/>
      <stop offset="0.996" stop-color="#26264f"/>
      <stop offset="1" stop-color="#26264f"/>
    </linearGradient>
    <clipPath id="clip-path-13">
      <path id="Caminho_8782" data-name="Caminho 8782" d="M337.756,2459.259l288.652,20.858-125.857,22.1a17.05,17.05,0,0,1-4.357.2l-299.276-24.705L333.164,2459.4a22.382,22.382,0,0,1,2.982-.2q.805,0,1.61.058" transform="translate(-196.917 -2459.201)" fill="#f9f9f9"/>
    </clipPath>
    <clipPath id="clip-path-15">
      <rect id="Retângulo_11054" data-name="Retângulo 11054" width="282.664" height="217.956" fill="none"/>
    </clipPath>
    <clipPath id="clip-path-16">
      <path id="Caminho_8795" data-name="Caminho 8795" d="M1112.936,1843.127c4.11,5.153-10.085,22.308-12.391,25.094-8.365,10.109-24.111,24.259-29.831,20.512-4.836-3.167-2.187-18.918,5.477-29.556,8.344-11.582,23.135-17.8,31.391-17.8,2.512,0,4.417.575,5.354,1.749" transform="translate(-1068.28 -1841.378)" fill="#070a8b"/>
    </clipPath>
    <clipPath id="clip-path-17">
      <path id="Caminho_8796" data-name="Caminho 8796" d="M1653.577,2702.7a3.253,3.253,0,0,1,.049,3.923c-.873.868-2.032.083-5.472-.069a23.586,23.586,0,0,0-3.167.078,8.145,8.145,0,0,1-3.989-.317c-.989-.354-2.721-1.162-2.634-1.88.061-.505.988-.7,4.094-1.491,4.409-1.123,4.4-1.2,5.321-1.287.824-.075,1.65-.15,2.423-.15a4.027,4.027,0,0,1,3.375,1.193" transform="translate(-1638.361 -2701.508)" fill="#f1f1f1"/>
    </clipPath>
    <clipPath id="clip-path-18">
      <path id="Caminho_8797" data-name="Caminho 8797" d="M1634.021,2672.994l-3.178,5.75a3.576,3.576,0,0,1-3.568-1l2.3-6Z" transform="translate(-1627.274 -2671.748)" fill="none"/>
    </clipPath>
    <linearGradient id="linear-gradient-12" x1="-26.867" y1="-1.241" x2="-26.85" y2="-1.241" gradientUnits="objectBoundingBox">
      <stop offset="0" stop-color="#ffc444"/>
      <stop offset="0.996" stop-color="#f36f56"/>
      <stop offset="1" stop-color="#f36f56"/>
    </linearGradient>
    <clipPath id="clip-path-19">
      <path id="Caminho_8798" data-name="Caminho 8798" d="M1516.567,2745.229a3.254,3.254,0,0,1,.049,3.923c-.873.868-2.032.083-5.472-.068a23.629,23.629,0,0,0-3.167.078,8.146,8.146,0,0,1-3.988-.317c-.989-.354-2.722-1.162-2.634-1.88.061-.5.988-.7,4.094-1.491,4.409-1.124,4.4-1.2,5.321-1.288.824-.074,1.65-.149,2.423-.149a4.027,4.027,0,0,1,3.375,1.192" transform="translate(-1501.351 -2744.037)" fill="#f1f1f1"/>
    </clipPath>
    <clipPath id="clip-path-20">
      <path id="Caminho_8799" data-name="Caminho 8799" d="M1497.011,2715.521l-3.178,5.751a3.577,3.577,0,0,1-3.568-1l2.3-6Z" transform="translate(-1490.264 -2714.276)" fill="none"/>
    </clipPath>
    <linearGradient id="linear-gradient-13" x1="-24.59" y1="-0.54" x2="-24.574" y2="-0.54" xlink:href="#linear-gradient-12"/>
    <clipPath id="clip-path-21">
      <path id="Caminho_8800" data-name="Caminho 8800" d="M877.628,1835.477a80.2,80.2,0,0,1,25.483,6.216c-2.47,29.774.049,61-2.89,91.893-.745,7.827-6.831,6.112-14.212,12.475-13.966,12.039-42.263,8.711-51.261-7.03-1.533-2.682-2.428-4.265-2.788-6.042-1.954-9.643,1.743-18.177,2.995-20.862,11.431-24.518-4.726-59.961,13.01-72.948,4.646-3.4,10.362-4.345,17.1-4.344,3.858,0,8.051.309,12.567.643" transform="translate(-831.401 -1834.834)" fill="#070a8b"/>
    </clipPath>
    <clipPath id="clip-path-23">
      <rect id="Retângulo_11063" data-name="Retângulo 11063" width="53.891" height="90.716" fill="none"/>
    </clipPath>
    <clipPath id="clip-path-24">
      <path id="Caminho_8801" data-name="Caminho 8801" d="M882.288,2017.271c2.842-6.3.94-13.884,6.449-16.728a12.692,12.692,0,0,1,7.065-1.116c-1.994,22.721-4.121,45.411-6.429,69.106-.762,7.826-1.771,8.142-9.878,14.451-9.394,7.31-24.76,8.787-37.583,5.22,17.82-9.222,30.785-19.182,29.731-28.618-1.227-10.99-20.841-15.657-19.473-23.305,1.451-8.105,23.906-5.247,30.118-19.01" transform="translate(-841.912 -1999.346)" fill="none"/>
    </clipPath>
    <linearGradient id="linear-gradient-14" x1="-1.07" y1="-0.41" x2="-1.068" y2="-0.41" gradientUnits="objectBoundingBox">
      <stop offset="0" stop-color="#aa80f9"/>
      <stop offset="0.996" stop-color="#6165d7"/>
      <stop offset="1" stop-color="#6165d7"/>
    </linearGradient>
    <clipPath id="clip-path-25">
      <path id="Caminho_8802" data-name="Caminho 8802" d="M693.7,1890.841c3.262,4.254,14.62,19.066,10.163,37.507-.726,3.005-4.086,17.058-16.777,23.125-11.363,5.432-25.965,2.74-37.106-6.967l-4.518-4.648-4.377-5.494a38.286,38.286,0,0,1,13.192-6.047,24.224,24.224,0,0,1,10.972.027c3.008.6,5.1,1.191,6.324-.2,2.929-3.32-4.712-10.472-5.742-25.537-.278-4.065-4.974-24.406,1.747-28.254a5.333,5.333,0,0,1,2.69-.657c6.641,0,17.328,9.185,23.43,17.143" transform="translate(-641.086 -1873.698)" fill="#070a8b"/>
    </clipPath>
    <clipPath id="clip-path-26">
      <path id="Caminho_8803" data-name="Caminho 8803" d="M1078.131,2254.237c2.876,12.6-3.765,7.075-17.525-1.015-14.492-8.521-46.579-21.592-61.775-8.7-11.317,9.6-5.068,26.565-22.725,43.424a53.115,53.115,0,0,1-7.8,6.155l-8.555-4.3c-.656-6.825-2.371-33.075,15.7-55.137,4.369-5.333,12.688-15.579,25.9-19.2a46.628,46.628,0,0,1,12.353-1.631c31.71,0,62.079,30.117,64.426,40.406" transform="translate(-959.386 -2213.831)" fill="#848484"/>
    </clipPath>
    <clipPath id="clip-path-27">
      <path id="Caminho_8804" data-name="Caminho 8804" d="M981.536,2282.521c1.928,7.26-.88,15.232-5.259,19.99-9.722,10.563-29.6,7.907-41.761,2.842-14.8-6.163-17.509-15.594-23.642-13.779-9.53,2.821-4.621,26.139-22.725,43.424a53.145,53.145,0,0,1-7.8,6.155l-8.555-4.3a104.654,104.654,0,0,1,3.777-36.22c2.621-9.068,4.969-17.19,12.047-24.669,8.794-9.291,19.587-11.985,25.774-13.444a85.865,85.865,0,0,1,19.487-2.143c22.16,0,44.81,7.676,48.655,22.149" transform="translate(-871.548 -2260.372)" fill="#848484"/>
    </clipPath>
    <clipPath id="clip-path-28">
      <path id="Caminho_8805" data-name="Caminho 8805" d="M1018.975,2245.8l-19.016,7.5-50.619-7.089.509-4.489Z" transform="translate(-949.34 -2241.731)" fill="none"/>
    </clipPath>
    <linearGradient id="linear-gradient-15" x1="-2.33" y1="-1.772" x2="-2.327" y2="-1.772" gradientUnits="objectBoundingBox">
      <stop offset="0" stop-color="#00d4ff"/>
      <stop offset="1" stop-color="#00d4ff"/>
    </linearGradient>
    <clipPath id="clip-path-29">
      <path id="Caminho_8806" data-name="Caminho 8806" d="M960.489,2267.891h0a3.082,3.082,0,0,1-2.237,2.738l-22.7,7.019.343-6,22.3-5.769a1.95,1.95,0,0,1,.4-.041,1.916,1.916,0,0,1,1.9,2.056" transform="translate(-935.549 -2265.835)" fill="none"/>
    </clipPath>
    <linearGradient id="linear-gradient-16" x1="-5.76" y1="-4.427" x2="-5.754" y2="-4.427" xlink:href="#linear-gradient-15"/>
    <clipPath id="clip-path-30">
      <path id="Caminho_8807" data-name="Caminho 8807" d="M1010.676,2233.295c-3.5.513-8.278,4.191-10.927,4.869a21.44,21.44,0,0,1-6.792.043l1.037-2.216c1.037-2.216,11-7.046,13-7.474a1.139,1.139,0,0,1,.24-.025c1.922,0,3.861,4.742,3.447,4.8" transform="translate(-992.956 -2228.492)" fill="none"/>
    </clipPath>
    <linearGradient id="linear-gradient-17" x1="-8.775" y1="-7.257" x2="-8.766" y2="-7.257" xlink:href="#linear-gradient-12"/>
    <clipPath id="clip-path-31">
      <path id="Caminho_8808" data-name="Caminho 8808" d="M1069.819,1988.118l74.669,7.635a2.509,2.509,0,0,1,2.253,2.408l1.591,44.676c.055,1.542-2.254,3.661-3.785,3.475l-71.077-9.661a2.51,2.51,0,0,1-2.2-2.25l-5.8-43.464c-.144-1.494,2.467-2.83,4.083-2.831a2.539,2.539,0,0,1,.26.013" transform="translate(-1065.47 -1988.105)" fill="none"/>
    </clipPath>
    <linearGradient id="linear-gradient-18" x1="-1.67" y1="-0.59" x2="-1.668" y2="-0.59" xlink:href="#linear-gradient-11"/>
    <clipPath id="clip-path-32">
      <path id="Caminho_8809" data-name="Caminho 8809" d="M1078.556,1995.12l74.669,7.635a2.51,2.51,0,0,1,2.253,2.408l1.591,44.676a2.511,2.511,0,0,1-2.812,2.581l-72.051-8.767a2.511,2.511,0,0,1-2.2-2.25l-4.208-43.543a2.506,2.506,0,0,1,2.754-2.739" transform="translate(-1075.79 -1995.106)" fill="#212121"/>
    </clipPath>
    <clipPath id="clip-path-34">
      <rect id="Retângulo_11074" data-name="Retângulo 11074" width="77.641" height="50.237" fill="none"/>
    </clipPath>
    <clipPath id="clip-path-35">
      <path id="Caminho_8810" data-name="Caminho 8810" d="M1106.921,2070.63c6.511-2.209,4.66-7.477,12.585-13.283,10.455-7.661,20.211-3.283,24.2-9.525,1.242-1.944,2-5.056.471-10.3l5.407.553a2.51,2.51,0,0,1,2.253,2.408l1.591,44.676a2.511,2.511,0,0,1-2.812,2.581l-72.051-8.767a2.511,2.511,0,0,1-2.2-2.25l-.581-6.009a27.393,27.393,0,0,1,8.092-2.369c10.767-1.367,15.542,4.826,23.038,2.283" transform="translate(-1075.79 -2037.525)" fill="none"/>
    </clipPath>
    <linearGradient id="linear-gradient-19" x1="-2.194" y1="-1.328" x2="-2.192" y2="-1.328" xlink:href="#linear-gradient-15"/>
    <clipPath id="clip-path-36">
      <path id="Caminho_8811" data-name="Caminho 8811" d="M919.146,1747.711c.344,2.9.69,3.67,1.156,4.307.7.959,1.812,1.8,8.278,3.923,3.518,1.153,3.981,1.163,4.034,1.525.258,1.763-9.952,6.954-19.944,4.783-6.115-1.329-11.477-5.27-10.995-7.1s6.584-.381,8.673-3.616c1.453-2.25.265-5.685-1.227-8.567,1.87-2.956,7.989-3.111,9.859-6.067a53.859,53.859,0,0,0,.166,10.808" transform="translate(-901.645 -1736.903)" fill="none"/>
    </clipPath>
    <linearGradient id="linear-gradient-20" x1="-3.975" y1="-3.649" x2="-3.97" y2="-3.649" xlink:href="#linear-gradient-12"/>
    <clipPath id="clip-path-37">
      <path id="Caminho_8812" data-name="Caminho 8812" d="M987.876,1703.442c1.4,1.938.018,6.752-.18,7.608-.224.968-.872,1.4-1.4,2.2-.731,1.106-1.871,2.86-3.72,5.784a16.322,16.322,0,0,0-1.368-2.48,14.416,14.416,0,0,0-2.418-2.766c-2.482-2.1-4-1.1-5.693-2.658a6.517,6.517,0,0,1-1.216-7.379c1.094-2.075,3.291-2.745,4.607-3.146a12.462,12.462,0,0,1,3.6-.519c3.018,0,6.113,1.04,7.786,3.354" transform="translate(-971.234 -1700.088)" fill="#212121"/>
    </clipPath>
    <clipPath id="clip-path-38">
      <path id="Caminho_8813" data-name="Caminho 8813" d="M979.4,1746.776c.983.091,1.371.422,2.98.539a11.612,11.612,0,0,0,1.322.022,1.746,1.746,0,0,1,1.028.137c.618.353,1.211,1.385.865,4.54a2.523,2.523,0,0,1,2.5-1.356,1.584,1.584,0,0,1,.716.481c.852,1.052.057,2.74-2.216,4.051a8.845,8.845,0,0,1-6.948,5.269c-4.618.538-7.159-9.573-4.642-12.278a5.747,5.747,0,0,1,3.9-1.428q.25,0,.5.023" transform="translate(-974.007 -1746.753)" fill="none"/>
    </clipPath>
    <linearGradient id="linear-gradient-21" x1="-9.973" y1="-8.465" x2="-9.963" y2="-8.465" xlink:href="#linear-gradient-12"/>
    <clipPath id="clip-path-39">
      <path id="Caminho_8814" data-name="Caminho 8814" d="M992.468,1748.968a6.456,6.456,0,0,1-.3.951,10.77,10.77,0,0,1-1.9,2.661c-1.032,1.55.272,2.525-.482,4.676a6.637,6.637,0,0,1-3.237,3.428c-.894.487-3.031,1.65-5.037.744-1.863-.842-2.987-3.185-2.725-5.79a10.6,10.6,0,0,1,3.286-.8,7.811,7.811,0,0,1,2.28.141,3.588,3.588,0,0,0,1.923.056,5.678,5.678,0,0,0,3.564-6.019c-.263-1.153-1.086-1.851-.9-2.055a.168.168,0,0,1,.128-.044c.512,0,2.131,1.121,3.4,2.05" transform="translate(-978.748 -1746.918)" fill="#212121"/>
    </clipPath>
    <clipPath id="clip-path-40">
      <path id="Caminho_8815" data-name="Caminho 8815" d="M1035.235,1802.261a2.127,2.127,0,0,1-1.95.98c-.752-.07-1.432-.645-1.367-.835.028-.08.191-.1.355-.1a5.648,5.648,0,0,0,2.765-.073.371.371,0,0,1,.087-.011c.052,0,.1.013.109.039" transform="translate(-1031.914 -1802.222)" fill="none"/>
    </clipPath>
    <linearGradient id="linear-gradient-22" x1="-84.305" y1="-45.379" x2="-84.223" y2="-45.379" gradientUnits="objectBoundingBox">
      <stop offset="0" stop-color="#ffc444"/>
      <stop offset="1" stop-color="#f36f56"/>
    </linearGradient>
  </defs>
  <g id="Grupo_16389" data-name="Grupo 16389" transform="translate(-752.496 -198.032)">
    <g id="Grupo_13900" data-name="Grupo 13900" transform="translate(-1522.47 4418.907) rotate(-140)">
      <g id="Grupo_de_máscara_56" data-name="Grupo de máscara 56" transform="translate(419 4574.9)" clip-path="url(#clip-path)">
        <g id="Grupo_907" data-name="Grupo 907" transform="translate(-727.002 272.337) rotate(-68)">
          <circle id="Elipse_381" data-name="Elipse 381" cx="310.382" cy="310.382" r="310.382" transform="translate(81.241 0)" fill="url(#radial-gradient)"/>
          <circle id="Elipse_382" data-name="Elipse 382" cx="286.426" cy="286.426" r="286.426" transform="translate(199.977 235.39)" fill="url(#radial-gradient-2)"/>
          <circle id="Elipse_383" data-name="Elipse 383" cx="357.251" cy="357.251" r="357.251" transform="translate(0 439.534)" fill="url(#radial-gradient-3)"/>
          <circle id="Elipse_384" data-name="Elipse 384" cx="291.634" cy="291.634" r="291.634" transform="translate(245.806 85.407)" fill="url(#radial-gradient-4)"/>
          <ellipse id="Elipse_385" data-name="Elipse 385" cx="260.387" cy="259.346" rx="260.387" ry="259.346" transform="translate(29.163 210.393)" fill="url(#radial-gradient-5)"/>
          <ellipse id="Elipse_387" data-name="Elipse 387" cx="583.268" cy="582.226" rx="583.268" ry="582.226" transform="translate(131.235 52.077)" fill="url(#radial-gradient-6)"/>
        </g>
      </g>
    </g>
    <g id="Grupo_13901" data-name="Grupo 13901" transform="translate(752.495 309.032)">
      <g id="Grupo_13818" data-name="Grupo 13818" transform="translate(25.412 6.434)">
        <g id="Grupo_13817" data-name="Grupo 13817" clip-path="url(#clip-path-2)">
          <rect id="Retângulo_11042" data-name="Retângulo 11042" width="383.126" height="384.885" transform="matrix(-0.721, -0.693, 0.693, -0.721, 124.847, 422.985)" fill="#00d4ff"/>
        </g>
      </g>
      <g id="Grupo_13820" data-name="Grupo 13820" transform="translate(20.917 6.434)">
        <g id="Grupo_13819" data-name="Grupo 13819" clip-path="url(#clip-path-3)">
          <rect id="Retângulo_11043" data-name="Retângulo 11043" width="381.751" height="359.122" transform="matrix(-0.514, -0.857, 0.857, -0.514, 62.739, 407.551)" fill="url(#linear-gradient-6)"/>
        </g>
      </g>
      <g id="Grupo_13822" data-name="Grupo 13822" transform="translate(24.393 13.196)">
        <g id="Grupo_13821" data-name="Grupo 13821" clip-path="url(#clip-path-4)">
          <rect id="Retângulo_11044" data-name="Retângulo 11044" width="332.037" height="361.032" transform="matrix(-0.895, -0.445, 0.445, -0.895, 181.402, 380.901)" fill="url(#linear-gradient-7)"/>
        </g>
      </g>
      <g id="Grupo_13824" data-name="Grupo 13824" transform="translate(44.443 33.649)">
        <g id="Grupo_13823" data-name="Grupo 13823" clip-path="url(#clip-path-5)">
          <rect id="Retângulo_11045" data-name="Retângulo 11045" width="184.528" height="248.437" transform="translate(0 0)" fill="url(#linear-gradient-3)"/>
        </g>
      </g>
      <g id="Grupo_13826" data-name="Grupo 13826" transform="translate(0.001)">
        <g id="Grupo_13825" data-name="Grupo 13825" clip-path="url(#clip-path-6)">
          <path id="Caminho_8773" data-name="Caminho 8773" d="M1553.628,476.083c11.9-7.326,33.047-21.473,51.5-39.635,20.163-19.844,31.832-38.886,34.575-56.505l.625-107.1c-.019-7.39-6.812-14.169-20.139-20.07-16.961-7.51-41.261-11.467-66.562-10.9-25.058.563-48.678,5.512-64.909,13.543-12.611,6.24-18.991,13.046-19.009,20.254l.585,103.611c2.573,17.1,13.58,35.791,32.826,55.674,17.869,18.46,38.665,33.3,50.506,41.126" transform="translate(-1415.861 -201.372)" fill="#c6c6c6"/>
        </g>
      </g>
      <g id="Grupo_13828" data-name="Grupo 13828" transform="translate(84.965 134.49)">
        <g id="Grupo_13827" data-name="Grupo 13827" clip-path="url(#clip-path-7)">
          <rect id="Retângulo_11047" data-name="Retângulo 11047" width="112.611" height="124.095" transform="translate(22.961 115.596) rotate(-118.413)" fill="url(#linear-gradient-9)"/>
        </g>
      </g>
      <g id="Grupo_13830" data-name="Grupo 13830" transform="translate(124.296 154.125)">
        <g id="Grupo_13829" data-name="Grupo 13829" transform="translate(0)" clip-path="url(#clip-path-8)">
          <rect id="Retângulo_11048" data-name="Retângulo 11048" width="38.585" height="43.878" transform="matrix(-0.84, -0.542, 0.542, -0.84, 14.776, 48.245)" fill="#c6c6c6"/>
        </g>
      </g>
      <g id="Grupo_13832" data-name="Grupo 13832" transform="translate(91.914 84.293)">
        <g id="Grupo_13831" data-name="Grupo 13831" clip-path="url(#clip-path-9)">
          <rect id="Retângulo_11049" data-name="Retângulo 11049" width="81.488" height="98.152" transform="translate(19.6 82.004) rotate(-118.413)" fill="url(#linear-gradient-10)"/>
        </g>
      </g>
      <g id="Grupo_13834" data-name="Grupo 13834" transform="translate(0.001)">
        <g id="Grupo_13833" data-name="Grupo 13833" clip-path="url(#clip-path-6)">
          <path id="Caminho_8777" data-name="Caminho 8777" d="M196.917,2551.673l429.491-3.661v10.832a5.765,5.765,0,0,1-4.41,5.885L500.55,2586.06a17.061,17.061,0,0,1-4.357.2l-294.609-24.32c-2.63-.217-4.667-2.725-4.667-5.746Z" transform="translate(-189.04 -2121.807)" fill="#212121"/>
          <path id="Caminho_8778" data-name="Caminho 8778" d="M178.434,1479.817l269.189,19.816a8.159,8.159,0,0,0,8.734-8.417V1290.759a8.9,8.9,0,0,0-8.734-9.06H178.434c-3.968,0-7.177,3.667-7.177,8.19V1471.1c0,4.523,3.209,8.426,7.177,8.718" transform="translate(-14.697 -1067.31)" fill="#212121"/>
        </g>
      </g>
      <g id="Grupo_13836" data-name="Grupo 13836" transform="translate(152.269 214.389)">
        <g id="Grupo_13835" data-name="Grupo 13835" clip-path="url(#clip-path-11)">
          <rect id="Retângulo_11051" data-name="Retângulo 11051" width="285.099" height="218.288" transform="translate(0 0)" fill="url(#linear-gradient-11)"/>
        </g>
      </g>
      <g id="Grupo_13838" data-name="Grupo 13838" transform="translate(0.001)">
        <g id="Grupo_13837" data-name="Grupo 13837" clip-path="url(#clip-path-6)">
          <path id="Caminho_8780" data-name="Caminho 8780" d="M272.843,1524.982l250.721,17.213a6.689,6.689,0,0,0,7.105-6.908v-175.5a7.3,7.3,0,0,0-7.105-7.427l-250.721-1.081c-3.274-.014-5.922,2.99-5.922,6.711v159.85c0,3.72,2.648,6.918,5.922,7.143" transform="translate(-105.011 -1125.251)" fill="#fff"/>
          <path id="Caminho_8781" data-name="Caminho 8781" d="M1073.558,1297.7a3.111,3.111,0,1,0,3.1-3.37,3.255,3.255,0,0,0-3.1,3.37" transform="translate(-789.025 -1077.827)" fill="#fff"/>
        </g>
      </g>
      <g id="Grupo_13840" data-name="Grupo 13840" transform="translate(7.878 411.349)">
        <g id="Grupo_13839" data-name="Grupo 13839" clip-path="url(#clip-path-13)">
          <rect id="Retângulo_11053" data-name="Retângulo 11053" width="429.491" height="43.342" transform="translate(0)" fill="#f9f9f9"/>
        </g>
      </g>
      <g id="Grupo_13845" data-name="Grupo 13845" transform="translate(0.001)">
        <g id="Grupo_13844" data-name="Grupo 13844" clip-path="url(#clip-path-6)">
          <path id="Caminho_8783" data-name="Caminho 8783" d="M763.4,2497.582l-240.311-17.624-74.374,9.918,238.241,18.839Z" transform="translate(-368.155 -2065.136)" fill="#212121"/>
          <path id="Caminho_8784" data-name="Caminho 8784" d="M269.572,1538.091l102.28,6.882a5.2,5.2,0,0,0,5.546-5.185V1360.655a5.2,5.2,0,0,0-5.176-5.2l-102.65-.414Z" transform="translate(47.816 -1128.386)" fill="#c6c6c6"/>
          <path id="Caminho_8785" data-name="Caminho 8785" d="M1059.6,1813.168l107.764,3.786v-10.9l-107.764-3.378Z" transform="translate(-874.294 -1501.147)" fill="#c6c6c6"/>
          <path id="Caminho_8786" data-name="Caminho 8786" d="M1059.6,1915.879l107.764,4.457v-10.9l-107.764-4.048Z" transform="translate(-874.294 -1586.677)" fill="#c6c6c6"/>
          <path id="Caminho_8787" data-name="Caminho 8787" d="M481.188,1837.38l61.88,2.109v-8.144l-61.88-1.939Z" transform="translate(-153.25 -1523.402)" fill="#fff"/>
          <path id="Caminho_8788" data-name="Caminho 8788" d="M481.188,1915.478l61.88,2.388v-8.144l-61.88-2.218Z" transform="translate(-153.25 -1588.437)" fill="#fff"/>
          <path id="Caminho_8789" data-name="Caminho 8789" d="M481.188,1993.575l61.88,2.666V1988.1l-61.88-2.5Z" transform="translate(-153.25 -1653.471)" fill="#fff"/>
          <path id="Caminho_8790" data-name="Caminho 8790" d="M481.188,2071.673l61.88,2.944v-8.144l-61.88-2.774Z" transform="translate(-153.25 -1718.505)" fill="#fff"/>
          <path id="Caminho_8791" data-name="Caminho 8791" d="M1059.6,2034.561l47.621,2.266v-10.9l-47.621-2.085Z" transform="translate(-814.15 -1685.318)" fill="#c6c6c6"/>
          <path id="Caminho_8792" data-name="Caminho 8792" d="M1328.212,1574.887v16.368a8.463,8.463,0,0,1-8.878,8.337l-12.14-.317a8.888,8.888,0,0,1-8.746-8.707v-16.2Zm-11.181,16.921-2.256-6.836a2.951,2.951,0,0,0,1.621-2.626,3.167,3.167,0,0,0-3.145-3.1,3.018,3.018,0,0,0-3.138,2.976,3.1,3.1,0,0,0,1.616,2.688l-2.248,6.724Z" transform="translate(-1075.097 -1311.028)" fill="#c6c6c6"/>
          <path id="Caminho_8793" data-name="Caminho 8793" d="M1307.623,1489.316a2.254,2.254,0,0,0,2.333-2.226,8.745,8.745,0,0,1,9.02-8.609,9.088,9.088,0,0,1,9.078,8.9,2.372,2.372,0,0,0,2.367,2.32,2.283,2.283,0,0,0,2.371-2.245,13.808,13.808,0,0,0-13.816-13.519,13.288,13.288,0,0,0-13.681,13.081,2.343,2.343,0,0,0,2.329,2.3" transform="translate(-1080.821 -1227.39)" fill="#c6c6c6"/>
          <g id="Grupo_13843" data-name="Grupo 13843" transform="translate(154.703 214.389)" opacity="0.48" style="mix-blend-mode: soft-light;isolation: isolate">
            <g id="Grupo_13842" data-name="Grupo 13842">
              <g id="Grupo_13841" data-name="Grupo 13841" clip-path="url(#clip-path-15)">
                <path id="Caminho_8794" data-name="Caminho 8794" d="M470.849,1499.633l-267.827-19.716-1.363-.1a7.224,7.224,0,0,1-4.741-2.4c19.273-1.055,31.244-7.894,38.966-14.961,15.508-14.193,12.818-28.188,29.541-37.519,20.858-11.639,37.259,3.109,53.087-11.442,9.6-8.822,4.885-15.4,16.692-28.583,13.078-14.6,21.592-9.693,34.735-22.834,16.618-16.616,8.307-29.544,22.621-41.474,17.366-14.473,36.094-1.077,52.625-14.957,7.13-5.986,11.042-14.689,13.085-23.946h12.577a8.9,8.9,0,0,1,8.733,9.06v200.457a8.159,8.159,0,0,1-8.732,8.417" transform="translate(-196.917 -1281.699)" fill="#fff"/>
              </g>
            </g>
          </g>
        </g>
      </g>
      <g id="Grupo_13847" data-name="Grupo 13847" transform="translate(246.521 307.052)">
        <g id="Grupo_13846" data-name="Grupo 13846" clip-path="url(#clip-path-16)">
          <rect id="Retângulo_11056" data-name="Retângulo 11056" width="70.996" height="71.014" transform="matrix(-0.56, -0.828, 0.828, -0.56, 13.659, 74.848)" fill="#070a8b"/>
        </g>
      </g>
      <g id="Grupo_13849" data-name="Grupo 13849" transform="translate(180.36 451.88)">
        <g id="Grupo_13848" data-name="Grupo 13848" transform="translate(0)" clip-path="url(#clip-path-17)">
          <rect id="Retângulo_11057" data-name="Retângulo 11057" width="17.303" height="11.084" transform="translate(14.326 11.115) rotate(-160.396)" fill="#f1f1f1"/>
        </g>
      </g>
      <g id="Grupo_13851" data-name="Grupo 13851" transform="translate(191.366 446.902)">
        <g id="Grupo_13850" data-name="Grupo 13850" clip-path="url(#clip-path-18)">
          <rect id="Retângulo_11058" data-name="Retângulo 11058" width="10.069" height="10.142" transform="translate(3.793 10.92) rotate(-138.571)" fill="url(#linear-gradient-12)"/>
        </g>
      </g>
      <g id="Grupo_13853" data-name="Grupo 13853" transform="translate(203.278 458.994)">
        <g id="Grupo_13852" data-name="Grupo 13852" transform="translate(0)" clip-path="url(#clip-path-19)">
          <rect id="Retângulo_11059" data-name="Retângulo 11059" width="17.303" height="11.084" transform="translate(14.326 11.115) rotate(-160.396)" fill="#f1f1f1"/>
        </g>
      </g>
      <g id="Grupo_13855" data-name="Grupo 13855" transform="translate(214.284 454.016)">
        <g id="Grupo_13854" data-name="Grupo 13854" transform="translate(0)" clip-path="url(#clip-path-20)">
          <rect id="Retângulo_11060" data-name="Retângulo 11060" width="10.07" height="10.142" transform="translate(3.793 10.92) rotate(-138.571)" fill="url(#linear-gradient-13)"/>
        </g>
      </g>
      <g id="Grupo_13857" data-name="Grupo 13857" transform="translate(259.529 306.912)">
        <g id="Grupo_13856" data-name="Grupo 13856" transform="translate(0)" clip-path="url(#clip-path-21)">
          <rect id="Retângulo_11061" data-name="Retângulo 11061" width="143.089" height="129.655" transform="matrix(-0.56, -0.828, 0.828, -0.56, 21.567, 157.214)" fill="#070a8b"/>
        </g>
      </g>
      <g id="Grupo_13864" data-name="Grupo 13864" transform="translate(0.001)">
        <g id="Grupo_13863" data-name="Grupo 13863" clip-path="url(#clip-path-6)">
          <g id="Grupo_13862" data-name="Grupo 13862" transform="translate(275.589 334.43)" opacity="0.3" style="mix-blend-mode: multiply;isolation: isolate">
            <g id="Grupo_13861" data-name="Grupo 13861">
              <g id="Grupo_13860" data-name="Grupo 13860" clip-path="url(#clip-path-23)">
                <g id="Grupo_13859" data-name="Grupo 13859" transform="translate(0 0)">
                  <g id="Grupo_13858" data-name="Grupo 13858" clip-path="url(#clip-path-24)">
                    <rect id="Retângulo_11062" data-name="Retângulo 11062" width="106.891" height="96.515" transform="matrix(-0.56, -0.828, 0.828, -0.56, 16.915, 117.434)" fill="url(#linear-gradient-14)"/>
                  </g>
                </g>
              </g>
            </g>
          </g>
        </g>
      </g>
      <g id="Grupo_13866" data-name="Grupo 13866" transform="translate(299.272 313.413)">
        <g id="Grupo_13865" data-name="Grupo 13865" transform="translate(0)" clip-path="url(#clip-path-25)">
          <rect id="Retângulo_11065" data-name="Retângulo 11065" width="106.591" height="102.31" transform="matrix(-0.56, -0.828, 0.828, -0.56, 21.104, 114.409)" fill="#070a8b"/>
        </g>
      </g>
      <g id="Grupo_13868" data-name="Grupo 13868" transform="translate(190.425 370.306)">
        <g id="Grupo_13867" data-name="Grupo 13867" clip-path="url(#clip-path-26)">
          <rect id="Retângulo_11066" data-name="Retângulo 11066" width="135.752" height="147.374" transform="matrix(-0.56, -0.828, 0.828, -0.56, 36.8, 137.638)" fill="#848484"/>
        </g>
      </g>
      <g id="Grupo_13870" data-name="Grupo 13870" transform="translate(213.916 378.091)">
        <g id="Grupo_13869" data-name="Grupo 13869" transform="translate(0)" clip-path="url(#clip-path-27)">
          <rect id="Retângulo_11067" data-name="Retângulo 11067" width="132.957" height="138.582" transform="translate(41.626 135.399) rotate(-127.849)" fill="#848484"/>
        </g>
      </g>
      <g id="Grupo_13872" data-name="Grupo 13872" transform="translate(241.876 374.973)">
        <g id="Grupo_13871" data-name="Grupo 13871" transform="translate(0)" clip-path="url(#clip-path-28)">
          <rect id="Retângulo_11068" data-name="Retângulo 11068" width="68.426" height="38.556" transform="translate(58.415 37.179) rotate(-156.334)" fill="url(#linear-gradient-15)"/>
        </g>
      </g>
      <g id="Grupo_13874" data-name="Grupo 13874" transform="translate(288.872 379.005)">
        <g id="Grupo_13873" data-name="Grupo 13873" transform="translate(0)" clip-path="url(#clip-path-29)">
          <rect id="Retângulo_11069" data-name="Retângulo 11069" width="26.983" height="16.936" transform="matrix(-0.976, -0.216, 0.216, -0.976, 23.858, 17.087)" fill="url(#linear-gradient-16)"/>
        </g>
      </g>
      <g id="Grupo_13876" data-name="Grupo 13876" transform="translate(286.439 372.759)">
        <g id="Grupo_13875" data-name="Grupo 13875" transform="translate(0)" clip-path="url(#clip-path-30)">
          <rect id="Retângulo_11070" data-name="Retângulo 11070" width="18.847" height="11.657" transform="translate(18.035 11.682) rotate(-175.774)" fill="url(#linear-gradient-17)"/>
        </g>
      </g>
      <g id="Grupo_13878" data-name="Grupo 13878" transform="translate(209.224 332.549)">
        <g id="Grupo_13877" data-name="Grupo 13877" transform="translate(0)" clip-path="url(#clip-path-31)">
          <rect id="Retângulo_11071" data-name="Retângulo 11071" width="101.246" height="97.83" transform="matrix(-0.773, -0.634, 0.634, -0.773, 49.483, 99.124)" fill="url(#linear-gradient-18)"/>
        </g>
      </g>
      <g id="Grupo_13880" data-name="Grupo 13880" transform="translate(209.079 333.72)">
        <g id="Grupo_13879" data-name="Grupo 13879" clip-path="url(#clip-path-32)">
          <rect id="Retângulo_11072" data-name="Retângulo 11072" width="83.816" height="97.067" transform="translate(11.285 85.779) rotate(-111.985)" fill="#212121"/>
        </g>
      </g>
      <g id="Grupo_13887" data-name="Grupo 13887" transform="translate(0.001)">
        <g id="Grupo_13886" data-name="Grupo 13886" clip-path="url(#clip-path-6)">
          <g id="Grupo_13885" data-name="Grupo 13885" transform="translate(212.717 340.816)" opacity="0.3" style="mix-blend-mode: multiply;isolation: isolate">
            <g id="Grupo_13884" data-name="Grupo 13884" transform="translate(0)">
              <g id="Grupo_13883" data-name="Grupo 13883" clip-path="url(#clip-path-34)">
                <g id="Grupo_13882" data-name="Grupo 13882" transform="translate(0)">
                  <g id="Grupo_13881" data-name="Grupo 13881" clip-path="url(#clip-path-35)">
                    <rect id="Retângulo_11073" data-name="Retângulo 11073" width="81.197" height="55.993" transform="matrix(-0.997, -0.074, 0.074, -0.997, 77.272, 56.114)" fill="url(#linear-gradient-19)"/>
                  </g>
                </g>
              </g>
            </g>
          </g>
        </g>
      </g>
      <g id="Grupo_13889" data-name="Grupo 13889" transform="translate(288.516 290.531)">
        <g id="Grupo_13888" data-name="Grupo 13888" transform="translate(0)" clip-path="url(#clip-path-36)">
          <rect id="Retângulo_11076" data-name="Retângulo 11076" width="37.188" height="39.541" transform="translate(3.775 38.29) rotate(-111.426)" fill="url(#linear-gradient-20)"/>
        </g>
      </g>
      <g id="Grupo_13891" data-name="Grupo 13891" transform="translate(290.586 284.373)">
        <g id="Grupo_13890" data-name="Grupo 13890" transform="translate(0)" clip-path="url(#clip-path-37)">
          <rect id="Retângulo_11077" data-name="Retângulo 11077" width="25.925" height="25.833" transform="matrix(-0.525, -0.851, 0.851, -0.525, 4.517, 27.286)" fill="#212121"/>
        </g>
      </g>
      <g id="Grupo_13893" data-name="Grupo 13893" transform="translate(292.254 292.179)">
        <g id="Grupo_13892" data-name="Grupo 13892" transform="translate(0)" clip-path="url(#clip-path-38)">
          <rect id="Retângulo_11078" data-name="Retângulo 11078" width="16.327" height="18.858" transform="translate(-1.244 16.426) rotate(-97.361)" fill="url(#linear-gradient-21)"/>
        </g>
      </g>
      <g id="Grupo_13895" data-name="Grupo 13895" transform="translate(292.872 292.206)">
        <g id="Grupo_13894" data-name="Grupo 13894" transform="translate(0)" clip-path="url(#clip-path-39)">
          <rect id="Retângulo_11079" data-name="Retângulo 11079" width="20.441" height="19.96" transform="matrix(-0.525, -0.851, 0.851, -0.525, 3.615, 21.645)" fill="#212121"/>
        </g>
      </g>
      <g id="Grupo_13897" data-name="Grupo 13897" transform="translate(294.375 301.457)">
        <g id="Grupo_13896" data-name="Grupo 13896" transform="translate(0)" clip-path="url(#clip-path-40)">
          <rect id="Retângulo_11080" data-name="Retângulo 11080" width="2.055" height="3.625" transform="translate(0.22 2.061) rotate(-106.56)" fill="url(#linear-gradient-22)"/>
        </g>
      </g>
    </g>
  </g>
</svg>
